<?xml version="1.0" encoding="UTF-8"?>
<svg id="Layer_2" data-name="Layer 2" xmlns="http://www.w3.org/2000/svg" xmlns:xlink="http://www.w3.org/1999/xlink" viewBox="0 0 435.22 435.22">
  <defs>
    <style>
      .cls-1 {
        fill: none;
      }

      .cls-2 {
        clip-path: url(#clippath);
      }

      .cls-3 {
        fill: #f2ebd7;
      }

      .cls-4 {
        fill: #6c66a2;
      }
    </style>
    <clipPath id="clippath">
      <path class="cls-1" d="m0,217.61c0,120.18,97.43,217.61,217.61,217.61s217.61-97.43,217.61-217.61S337.79,0,217.61,0,0,97.43,0,217.61"/>
    </clipPath>
  </defs>
  <g id="Layer_1-2" data-name="Layer 1">
    <g class="cls-2">
            <rect class="cls-4" x="-109.1" y="-131.96" width="1" height="1"/>

      <path class="cls-3" d="m179.49,407.4c-.1,0-.21-.02-.32-.02-1.6,0-2.93,1.19-3.08,2.77-.18,1.71,1.06,3.23,2.77,3.42.09,0,.2.02.31.02,1.59,0,2.91-1.2,3.07-2.78.17-1.73-1.03-3.22-2.75-3.41"/>
      <path class="cls-3" d="m77.21,183.22c-.17.59-.61,1.08-1.19,1.29-.57.22-1.22.15-1.75-.18-.67-.44-1.19-.94-1.55-1.4l-2.89.22c-.28,5.64.16,8.78,1.19,13.21,1.78,7.59,5.52,12.85,7.15,14.86,6.01-2.1,11.3-6.43,14-8.9-8.6-4.69-12.36-9.27-12.53-9.48-.54-.66-.58-1.59-.13-2.3.46-.71,1.33-1.05,2.15-.84.02,0,1.96.5,4.46.5,4.5,0,7.67-1.47,9.43-4.38.44-.72.91-1.4,1.41-2.05.65-3.09,1.63-5.94,2.8-8.58-2.88-.78-5.58-1.21-8.02-1.21-11.73,0-14.51,9.15-14.54,9.24"/>
      <path class="cls-3" d="m172.83,26.28c-2.12,0-4.52-.29-7.21-1.05l1.04-3.89c.05-.2,0-.38-.15-.52-.11-.12-.25-.19-.41-.19-.05,0-.09,0-.14.02l-14.14,4.93c-.16.06-.31.19-.35.38-.07.17-.05.34.08.51l9.25,11.29c.11.12.27.2.41.2.04,0,.09,0,.13-.02.14,0,.26-.07.35-.17.04-.05.08-.12.08-.21l1.2-3.79c1.37.46,5.69,1.72,11.05,1.72,6.6,0,14.78-1.91,21.01-9.58,5.15-6.01,6.44-12.59,6.15-18.31-3.16.24-6.3.56-9.42.94-.14,3.51-1.19,5.9-1.72,6.88l-6.78-5.66c-4.11.68-8.2,1.47-12.23,2.38l12.84,10.69c-1.24.97-4.92,3.45-11.05,3.45"/>
      <path class="cls-3" d="m269.16,359.68c-2.49,0-4.79,1.35-6.47,3.79-.44.63-1.2.96-1.97.82-.98-.17-1.78-1.08-1.71-2.07.16-2.7-.57-4.99-2.13-6.64-.77-.82-1.73-1.42-2.77-1.79-.2.26-4.07,5.4-10.94,10.27.03.62.09,1.26.22,1.94.61,3.18,5.84,15.11,8.63,21.27,6.1-2.97,17.79-8.81,20.33-10.87,3.48-2.89,4.02-6.42,4.03-6.45.67-2.87.16-5.41-1.38-7.37-1.43-1.82-3.63-2.89-5.85-2.89"/>
      <path class="cls-3" d="m166.57,390.81c-.15.84-.82,1.48-1.67,1.6-.84.13-1.67-.31-2.04-1.07-.13-.25-2.89-5.93-3.6-16.38-3.56,1.49-10.27,4.73-15.03,9.73,1.19,2.41,4.6,8.45,11.24,13.56,3.84,2.99,6.68,4.81,12.34,7.05l1.57-2.82c-.28-.56-.56-1.28-.69-2.13-.09-.61.12-1.25.55-1.68.44-.44,1.07-.65,1.68-.56.05,0,.46.06,1.13.06,2.18,0,6.4-.52,10.13-4.04,4.29-4.03,6.71-10.74,7.24-19.98-2.9,1.89-7.45,4.23-12.87,4.87-7.95.91-9.96,11.68-9.98,11.79"/>
      <polygon class="cls-3" points="258.13 298.07 264.55 290.33 250.19 290.75 250.66 298.29 258.13 298.07"/>
      <path class="cls-3" d="m357.66,103.98c.43,1.25,1.61,2.57,3.64,2.57.51,0,1.06-.09,1.62-.26.19-.06.38-.09.56-.09.66,0,1.29.33,1.66.91.48.74.4,1.71-.19,2.37-1.35,1.52-1.73,3.28-1.04,4.81.91,2.05,3.41,2.85,5.82,1.71.24-.1,2.02-.8,3.22-3.07.76-1.49,2.55-8.06,3.77-12.91-4.91-1.1-11.4-2.42-13.24-2.42-2.59.03-4.05,1.36-4.11,1.41-2.02,1.6-2.19,3.6-1.71,4.96"/>
      <path class="cls-3" d="m245.79,10.38c.29-.14.6-.22.91-.22.2,0,.41.03.61.09.5.16.91.51,1.15.98,1.8,3.55,2.88,6.15,2.92,6.26,1.02,2.13,2.39,3.22,4.16,3.22.44,0,.89-.06,1.3-.17-1.81-2.25-2.08-5.34-1.85-7.25.02-.09.04-.19.06-.28.24-.91.42-1.78.56-2.63-11.06-2.02-22.43-3.16-34.04-3.38-1.84,1.33-3.63,2.28-5.15,2.94,4.58,2.42,9.54,3.64,14.79,3.64,8.35,0,14.53-3.17,14.59-3.21"/>
      <path class="cls-3" d="m347.56,164.38l11.07-4.34,5.33-16.36c.33-1.03,1.44-1.6,2.48-1.26l12.91,4.18,9.68-3.81-5.66-8.77-35.39-11.47-12.32,37.98,11.89,3.85Zm26.63-28.66l3.28,1.04c1.19.4,1.83,1.66,1.44,2.88-.37,1.2-1.69,1.87-2.85,1.48l-3.3-1.11,1.43-4.29Zm-22.85,2.54l3.3,1.05c1.16.41,1.82,1.69,1.45,2.9-.41,1.18-1.67,1.87-2.89,1.48l-3.25-1.08,1.39-4.36Zm-.21,11.92c1.18.4,1.82,1.69,1.48,2.89-.44,1.22-1.69,1.88-2.91,1.49l-3.29-1.09,1.38-4.34,3.34,1.05Z"/>
      <path class="cls-3" d="m246.86,153.76c3.6-2.45,5.94-5.28,6.64-6.21l2.15,1.83c.06.04.09.05.16.08.03.02.08.02.12.02.06,0,.12-.01.18-.04.14-.06.25-.21.26-.38l1.37-11.57c0-.14-.04-.29-.17-.37-.07-.06-.16-.09-.26-.09-.04,0-.09,0-.14.02l-8.79,2.6-1.53,14.11Z"/>
      <path class="cls-3" d="m392.78,322l-2.72-13.43-7.15,1.42,2.71,13.45c.21,1.06-.48,2.1-1.55,2.32l-30.86,6.23,1.48,7.25,30.87-6.25c.13-.03.26-.04.39-.04.38,0,.76.11,1.08.33.44.29.73.74.85,1.25l1.11,5.52c4.04-5.65,7.82-11.51,11.3-17.56l-5.2,1.05c-1.06.22-2.1-.47-2.32-1.54"/>
      <path class="cls-3" d="m254.15,86.55l-.28,2.59,27.4,5.81,2.59-12.29-5.51-10.67-16.91-3.61c-1.06-.23-1.74-1.27-1.51-2.33l2.83-13.34-4.83-9.31-8.19,6.54-5.7,26.89c6.53,4.81,10.13,9.72,10.13,9.72m15.13-5.92c.26-1.25,1.49-2.04,2.73-1.78,1.2.27,2.02,1.51,1.76,2.75l-.71,3.39-4.51-.96.73-3.4Zm-11.24-2.4c.25-1.24,1.5-2.02,2.71-1.76,1.26.26,2.06,1.5,1.8,2.72l-.72,3.44-4.5-.98.72-3.42Zm-4.95-22.58c.27-1.21,1.51-2.04,2.75-1.74,1.2.24,2.01,1.44,1.76,2.72l-.72,3.38-4.5-.96.72-3.4Z"/>
      <path class="cls-3" d="m401.91,278.2c-.51-.12-.96-.43-1.24-.87-2.45-3.91-3.96-6.74-4.02-6.86-1.36-2.32-3-3.48-4.95-3.48-.87,0-1.72.23-2.47.53,2.55,2.38,3.2,6.14,3.12,8.28,0,.09-.02.18-.03.27-1.72,9.8,1.83,16.48,1.87,16.54,3.52,6.49,9.89,9.26,16.05,10.28.51-1.17,1.03-2.34,1.54-3.52-2.84-2.25-3.47-3.87-3.56-4.7-.06-.58.14-1.17.55-1.59.42-.42,1.02-.62,1.59-.57.09,0,1.83.15,4.2-.13,2.44-6.43,4.58-13,6.39-19.71-10.2.64-17.47,5.22-17.55,5.27-.44.28-.98.38-1.49.26"/>
      <path class="cls-3" d="m96.15,191.01c-2.39,1.93-5.55,3.01-9.37,3.12,2.21,1.73,5.37,3.87,9.58,5.94.26.13.46.32.64.53-.57-2.67-.91-5.49-.91-8.48,0-.38.04-.73.06-1.11"/>
      <path class="cls-3" d="m180.69,98.14c.19,2.99.02,7.2-1.65,11.38-2.47,6.19,4.71,12.03,4.79,12.09.67.53.91,1.42.61,2.22-.29.8-1.02,1.33-1.9,1.28-.25,0-5.6-.23-13.68-3.84-.3,3.35-.48,9.37,1.23,14.72,2.33.08,8.09-.07,14.57-2.97.48-.21.94-.42,1.38-.62l-3.59-33.09c-.56-.39-1.14-.79-1.75-1.17"/>
      <path class="cls-3" d="m281.82,152.73l-6.2,7.88,14.35-1.62c-.22-.07-.44-.17-.63-.32l-7.52-5.94Z"/>
      <path class="cls-3" d="m273.74,14.54c-.13-.03-.25-.07-.38-.1-.55,3.11-1.16,6.87-1.66,11.02-.68,5.34-.86,9.35-.9,11.73l8.79-2.55-5.86-20.1Z"/>
      <path class="cls-3" d="m338.43,199.4c4.57,1.99,9.37,3.99,11.1,4.34.63.12,1.29.19,1.94.19,2.51,0,4.14-.98,4.15-.99,3.7-1.84,4.35-5.05,3.83-7.27-.54-2.28-2.66-4.74-6.77-4.38-.87.09-1.71-.45-2.01-1.28-.3-.83-.04-1.82.67-2.33,2.59-1.88,3.64-4.55,2.8-7.15-.97-2.99-4.17-4.61-7.69-3.79-.3.05-3.05.48-5.39,3.34-.59.71-1.56,2.35-2.68,4.38.47,2.43.75,4.98.75,7.66,0,2.54-.26,4.96-.69,7.28"/>
      <path class="cls-3" d="m155.72,142.32l-1.01,9.82,5.64,8.55,16.21,1.83-11.42-17.29-9.43-2.91Zm6.62,14.17l-1.84-2.77c-.64-1.02-.37-2.36.62-3.04,1-.64,2.39-.4,3.06.6l1.81,2.81-3.66,2.39Z"/>
      <path class="cls-3" d="m279.95,148.75c.32-.41.8-.68,1.31-.74.51-.06,1.04.09,1.45.41l7.53,5.94,2.69-3.42-7.53-5.92c-.85-.68-1-1.91-.32-2.76l5.94-7.56-3.49-2.75-5.94,7.56c-.32.41-.8.68-1.31.74-.52.06-1.04-.09-1.45-.41l-7.55-5.95-2.71,3.44,7.55,5.95c.85.67,1,1.91.33,2.76l-12.53,15.91,6.22-.7,9.81-12.48Z"/>
      <path class="cls-3" d="m322.54,157.52c.26-2.07.73-3.95,1.25-5.46-3.65,1.1-6.65,2.48-9.02,4.13l5.45-.61s.92.69,2.32,1.95"/>
      <path class="cls-3" d="m131.19,143.74c-1.76,0-3.4.72-4.51,1.97-1.19,1.35-1.67,3.21-1.39,5.39.08.61-.14,1.21-.56,1.64-.39.4-.96.62-1.52.59-.56-.03-1.1-.28-1.44-.72-1.5-1.89-3.44-2.93-5.45-2.93-1.83,0-3.58.87-4.68,2.32-1.24,1.62-1.57,3.79-.94,6.11.03.1.11.48.3,1,2.33-2.3,4-3.53,4-3.53l21.96,2.48c.65-1.87,1.12-3.39,1.25-4.22.57-3.75-1.03-6.2-1.04-6.23-1.39-2.52-3.54-3.87-5.98-3.87"/>
      <path class="cls-3" d="m22.79,178.52c-3.14-4.8-6.49-8.29-9.94-10.47-1,4.11-1.88,8.27-2.63,12.48,3.24-1.35,6.89-2.05,10.84-2.05.61,0,1.19.02,1.72.05"/>
      <path class="cls-3" d="m126.95,114.22l7.65.18.43-18.25c-1.29,2.43-2.82,5.46-4.35,8.84-1.91,4.1-3.09,7.29-3.74,9.23"/>
      <path class="cls-3" d="m146.9,101.45l-.31,13.23,7.68.18c-.57-1.48-1.49-3.65-2.89-6.35-1.48-2.94-3.12-5.33-4.48-7.06"/>
      <path class="cls-3" d="m116.33,95.71c-1.29,2.43-2.82,5.46-4.36,8.85-1.9,4.1-3.07,7.28-3.72,9.23l7.66.18.43-18.26Z"/>
      <path class="cls-3" d="m111.33,72.86c3.34,4.89,8.85,7.35,16.41,7.35,1.4,0,2.75-.09,3.99-.22-7.04-2.89-8.4-5.32-8.63-6.38-.13-.58.02-1.19.38-1.65.38-.46.93-.73,1.53-.74.08,0,9.49-.18,13.15-7.04,2.48-4.73,5.93-7.8,8.59-9.63-2.97-.89-5.99-1.34-9.04-1.34-11.53,0-19.79,6.48-19.87,6.55-.41.33-.93.48-1.46.42-.52-.06-1-.33-1.32-.75-2.44-3.14-4-5.48-4.06-5.58-1.19-1.62-2.49-2.44-3.91-2.44-.7,0-1.4.21-2.02.5,2.2,1.86,3.05,4.83,3.2,6.76,0,.1,0,.19,0,.28-.61,8.52,3.04,13.86,3.08,13.91"/>
      <path class="cls-3" d="m144.09,304.69c-1.07-6.46-4.3-11.58-9.27-14.5-4.19-2.46-9.31-3.25-15.09-2.39,1.22,5.72,3.75,10.24,7.53,13.3,4.47,3.62,10.4,4.85,16.83,3.59"/>
      <path class="cls-3" d="m46.65,317.43c5.1-3.04,8.4-8.35,9.45-15.02-6.63-1.26-12.74.04-17.32,3.81-3.2,2.63-5.5,6.28-6.89,10.79.58,1.08,1.18,2.16,1.77,3.23,4.93.31,9.31-.61,12.98-2.8"/>
      <polygon class="cls-3" points="146.44 133.03 152.04 126.95 109.35 125.95 113.63 132.25 146.44 133.03"/>
      <path class="cls-3" d="m98.81,153.38l.14-12.14-13.38-11.23c-.84-.7-.95-1.94-.25-2.77l8.83-10.56.1-10.61-10.43,1.96-24.29,29.02,31.13,26.07,8.14-9.75Zm-14.61-38.74c.81-1.01,2.28-1.1,3.23-.29,1,.81,1.14,2.28.32,3.26l-2.27,2.7-3.56-2.99,2.28-2.68Zm-2.75,25.47l-2.25,2.68-3.54-2.97,2.27-2.68c.8-1,2.24-1.11,3.24-.3.99.8,1.13,2.29.28,3.28m6.65,10.13l-3.54-2.98,2.22-2.66c.85-.99,2.31-1.11,3.27-.31,1,.82,1.13,2.26.31,3.27l-2.25,2.68Z"/>
      <path class="cls-3" d="m136.43,275.46c-3.53-6.51-3.06-9.19-2.58-10.14.26-.53.75-.91,1.33-1.03.58-.12,1.18.02,1.65.38.04.03,4.65,3.62,10.03,3.62,1.52,0,2.98-.29,4.33-.86,3.29-1.41,6.81-2.13,10.49-2.13.7,0,1.36.03,1.96.07-9.34-13.61-25.04-13.82-25.21-13.82-.53,0-1.03-.21-1.4-.59-.37-.38-.57-.89-.56-1.41.08-3.94.33-6.69.34-6.81.08-1.71-.31-3.06-1.14-3.93-.59-.61-1.37-.97-2.14-1.17.5,2.83-.73,5.68-1.76,7.14-.05.07-.1.14-.16.2-5.69,6.14-6.22,12.47-6.23,12.53-.68,8.55,5.83,14.55,11.05,17.95"/>
      <path class="cls-3" d="m296.94,80.47c2.14,1.43,11.7,5.22,16.96,7.24,2.27-6.41,5.22-15.25,5.46-17.62.38-3.59-1.23-5.83-1.3-5.92-1.37-2.22-3.35-3.4-5.54-3.4-1.73,0-3.34.73-4.4,1.99-1.14,1.36-1.55,3.2-1.18,5.33.1.57-.06,1.16-.43,1.6-.74.88-2.28.89-3.03.03-1.83-2.09-3.75-2.53-5.03-2.53-1.79,0-3.48.87-4.54,2.32-1.17,1.62-1.41,3.73-.68,5.97.08.3.73,2.98,3.71,4.99"/>
      <path class="cls-3" d="m280.77,112.34c-.52-.09-.98-.38-1.28-.82-.06-.08-6.23-8.73-17.28-9.22,1.33,1.84,2.73,4.44,3.4,7.71,1.03,5.11,7.18,7.08,7.24,7.1.56.18,1.03.6,1.25,1.14.22.55.19,1.17-.1,1.68-.44.79-1.73,1.95-5.51,2.62,1.78.58,3.77,1.01,5.8,1.01h0c2.75,0,5.14-.81,7.11-2.41.05-.04,3.5-2.89,4.78-8.65.02-.09.04-.18.08-.27.44-1.16,1.46-2.85,3.07-3.89-.86-.43-1.93-.27-3.17.67,0,0-1.56,1.29-3.91,2.98-.43.31-.96.43-1.49.35"/>
      <path class="cls-3" d="m301.66,98.66c1.74,2.98,3.85,7.62,4.23,13.06.55,7.97,11.19,10.45,11.29,10.48.84.19,1.45.88,1.53,1.73.08.85-.39,1.65-1.16,1.99-.26.11-6.04,2.6-16.51,2.87,1.32,3.61,4.26,10.41,9.02,15.38,2.47-1.08,8.62-4.22,14.03-10.58,3.17-3.73,5.12-6.5,7.58-11.97l-2.72-1.69c-.57.27-1.31.52-2.16.6-.64.05-1.23-.18-1.65-.64-.42-.46-.6-1.09-.48-1.7.04-.23,1.02-5.79-3.06-10.95-3.75-4.72-10.44-7.6-19.93-8.58"/>
      <path class="cls-3" d="m244.64,32.91h.2c1.32,0,2.41-.97,2.53-2.27.13-1.39-.9-2.63-2.29-2.77-.07,0-.15-.01-.23-.01-1.27,0-2.37,1.01-2.48,2.3-.08.68.11,1.31.52,1.82.44.54,1.05.87,1.74.94"/>
      <path class="cls-3" d="m183.85,56.52c1.73,1.02,9.07,3.5,14.61,5.25,1.58-5.6,3.54-13.12,3.64-15.11.11-2.97-1.32-4.76-1.37-4.83-1.17-1.66-2.69-2.5-4.38-2.5-1.46,0-2.84.65-3.7,1.74-.91,1.17-1.18,2.72-.74,4.49.22.95-.28,1.92-1.19,2.29-.74.29-1.61.14-2.17-.42-1.19-1.21-2.57-1.84-3.97-1.84-1.5,0-2.89.74-3.74,1.99-.95,1.39-1.06,3.18-.32,5.03.09.26.78,2.42,3.34,3.92"/>
      <path class="cls-3" d="m163.02,76.99v26.34h5.67v-26.38c0-1.08.88-1.96,1.96-1.96h11.24v-5.53h-11.24c-1.08,0-1.96-.88-1.96-1.96v-11.28h-5.67v11.28c0,1.08-.88,1.96-1.96,1.96h-11.3v5.56h11.3c1.09,0,1.96.88,1.96,1.96"/>
      <path class="cls-3" d="m227.56,42c.84.14,1.49.8,1.62,1.64.13.85-.29,1.67-1.05,2.06-.23.12-5.18,2.58-14.3,3.37,1.39,3.16,4.24,8.74,8.5,12.77,2.2-1.14,7.36-4.23,11.72-9.98,2.58-3.42,4.16-5.94,6.03-10.8l-2.24-1.21c-.49.25-1.13.48-1.86.6-.61.1-1.25-.1-1.69-.54-.44-.44-.66-1.06-.57-1.67.03-.2.6-5.06-3.18-9.35-3.45-3.92-9.36-6.12-17.6-6.57,1.67,2.59,3.65,6.5,4.23,11.13.88,6.92,10.3,8.54,10.39,8.55"/>
      <path class="cls-3" d="m46.84,284.99l2.13-12.1-11.46-13.36c-.71-.82-.61-2.07.2-2.78l10.55-9.07,1.86-10.58-10.73.24-27.87,23.92c.21,1.01.43,2.01.66,3.02l24.91,29.05,9.75-8.35Zm-8.21-41.03c1-.83,2.46-.71,3.31.26.86.99.73,2.51-.24,3.32l-2.7,2.32-3.05-3.56,2.67-2.34Zm-6.91,24.91l-2.71,2.3-3.03-3.55,2.71-2.29c.98-.85,2.46-.73,3.29.26.85.97.73,2.44-.26,3.29m1.9,7.62l2.63-2.29c1.03-.83,2.48-.73,3.33.27.85.97.73,2.43-.21,3.31l-2.73,2.3-3.01-3.58Z"/>
      <path class="cls-3" d="m54.97,123.31c2.6-4.69,3.31-10.35,2.19-16.7-6.31,1.47-11.25,4.35-14.54,8.61-3.88,5.03-5.05,11.61-3.43,18.67,7.12-1.32,12.69-5.01,15.78-10.58"/>
      <path class="cls-3" d="m79.17,338.57c.7-6.65-7.85-10.32-7.94-10.36-.78-.33-1.27-1.13-1.2-1.97.07-.85.68-1.56,1.5-1.75.09-.03,2.47-.58,6.6-.58,2.46,0,5.03.19,7.67.57-.62-3.31-2.08-9.17-5.18-13.89-2.36.59-7.91,2.37-13.29,6.84-3.17,2.63-5.22,4.65-8.08,8.83l1.79,1.62c.43-.1.92-.18,1.48-.18.13,0,.26,0,.39.01.62.04,1.19.38,1.53.91.33.53.4,1.18.18,1.77-.07.18-1.7,4.7.98,9.62,2.41,4.43,7.47,7.79,15.07,10.02-1-2.83-1.98-6.95-1.5-11.45"/>
      <path class="cls-3" d="m69.46,298.31h.03c.09-.04.2-.08.28-.16.04-.05.05-.09.08-.15l.96-2.73c1.24.51,5.57,2.1,10.86,2.1s11-1.46,15.92-6.71c10.39-10.52,4.68-24.57,3.58-26.97l2.99-1.32c.07-.04.1-.06.17-.1.06-.09.09-.17.09-.29.03-.17-.05-.35-.19-.42l-10.07-6.55c-.09-.06-.17-.09-.27-.09-.05,0-.11.01-.17.04-.14.09-.25.19-.26.34l-2.77,12.01c-.05.18.04.34.19.44.07.06.17.09.27.09.07,0,.12-.02.17-.05l3.11-1.17c3.33,8.37.61,13.7-.32,15.17l-24.2-23.25c.32-2.09-.37-4.23-1.96-5.78-1.32-1.26-2.99-1.88-4.67-1.88-1.77,0-3.54.7-4.86,2.08-2.6,2.64-2.5,6.95.16,9.52,1.3,1.26,2.95,1.87,4.61,1.87.41,0,.82-.04,1.22-.11l24.17,23.24c-.96.67-3.66,2.24-7.96,2.24-2.02,0-4.41-.35-7.13-1.31l1.17-2.86c.07-.19.03-.36-.07-.46-.1-.1-.23-.16-.38-.16-.02,0-.04,0-.07,0l-12.01,2.97c-.19.04-.28.13-.32.23-.09.15-.05.32.03.44l7.22,9.52c.1.12.24.22.4.22m-4.79-39.31c-.79.8-2.08.82-2.9.06-.81-.76-.83-2.1-.04-2.9.78-.81,2.09-.86,2.9-.05.82.77.84,2.08.04,2.89"/>
      <path class="cls-3" d="m52.53,333.31c-.25-.08-.5-.12-.76-.12-1.04,0-1.96.65-2.28,1.63-.44,1.27.26,2.64,1.52,3.08,1.18.39,2.62-.31,3.02-1.54.22-.62.18-1.26-.1-1.83-.28-.58-.78-1.01-1.4-1.22"/>
      <path class="cls-3" d="m129.58,369.99l-26.52,24.35c2.5,1.63,5.04,3.19,7.61,4.71l20.22-18.56-1.31-10.5Z"/>
      <path class="cls-3" d="m340.82,94.45c-3.51-7.17-2.85-9.97-2.29-10.94.3-.51.8-.85,1.38-.95.58-.09,1.17.08,1.61.46.05.04,5.03,4.34,10.94,4.34,1.36,0,2.69-.23,3.94-.69,3.01-1.1,6.19-1.66,9.47-1.66,1.41,0,2.68.11,3.78.25-8.89-14.8-24.96-15.92-25.7-15.97-.52-.04-1.02-.27-1.37-.67-.34-.4-.52-.91-.48-1.44.3-4.08.68-6.92.7-7.04.19-1.86-.16-3.34-1.05-4.31-.61-.67-1.43-1.08-2.23-1.32.56,3.82-2.06,7.24-2.2,7.43-.06.07-.12.14-.19.21-6.32,6.14-7.19,12.65-7.2,12.72-1.2,9.09,5.54,15.79,10.88,19.57"/>
      <path class="cls-3" d="m80.37,363.67l15.93,17.37,7.33-6.71c-2.16-1.26-5.92-3.33-11.24-5.67-4.54-2.06-8.72-3.74-12.03-4.99"/>
      <path class="cls-3" d="m44.14,208.98c-.53-.36-.85-.95-.86-1.59-.02-.64.28-1.24.79-1.62l1.02-.78c.52-.4,1.05-.79,1.57-1.17.5-.38,1.05-.76,1.59-1.14,1.51-1.07,2.95-2.08,4.12-3.28,1.19-1.2,1.88-2.6,1.95-3.95.04-.89-.08-1.82-.32-2.34-.29-.68-.72-1.34-1.13-1.72-1.37-1.34-4.03-1.71-5.81-.87-1.78.83-2.92,2.61-4.14,4.5l-1.38,2.11c-.61.94-1.24,1.88-1.88,2.81-.08.14-.18.27-.28.4-.04.07-.1.14-.15.21-.08.18-.18.35-.32.5-.61.71-1.62.9-2.44.44-.23-.13-.43-.3-.6-.51h0s-.92-1.19-.92-1.19c-1.34-1.72-2.68-3.45-3.97-5.21-1.13-1.65-2.46-2.77-3.78-3.18-1.35-.42-2.83-.43-3.89,0-.67.29-1.32.71-1.71,1.13-1.5,1.58-1.69,4.47-.43,6.43.86,1.35,2.08,2.2,3.51,3.18l.46.32c.93.61,1.91,1.27,2.88,1.93l1.69,1.16c.12.08.22.17.32.26.11.09.28.21.4.29.28.12.54.31.74.55.68.83.56,2.06-.26,2.75l-.24.2c-.33.27-.64.53-.95.82l-3.12,2.73c-1.28,1.14-2.6,2.28-3.95,3.42l-1.39,1.22c-.79.7-1.58,1.38-2.35,2.08-.46.43-.93.83-1.39,1.23-.66.57-1.31,1.13-1.93,1.73-1.61,1.59-2.7,4.4-1.6,6.68.31.61.68,1.13,1.03,1.49,2.02,1.91,5.88,1.5,8.21-.94l12.57-15.95c.38-.48.93-.82,1.56-.75.61,0,1.18.29,1.55.78l6.09,8.01c1.32,1.21,2.99,1.91,4.63,1.91,1.39,0,2.64-.51,3.52-1.44.84-.88,1.29-2.08,1.27-3.41-.04-1.68-.79-3.38-2.09-4.69l-8.21-5.57Z"/>
      <path class="cls-3" d="m97.4,348.02l15.97,17.4,7.29-6.73c-2.14-1.26-5.9-3.34-11.2-5.69-4.55-2.07-8.74-3.74-12.06-4.99"/>
      <path class="cls-3" d="m76.18,224.51c-.96.5-2.14.14-2.65-.81-1.64-3.06-2.63-5.28-2.67-5.37-1.32-2.64-2.94-2.64-3.47-2.64-.21,0-.44.02-.64.05,1.42,1.95,1.68,4.48,1.52,6.09-.02.09-.03.18-.05.28-1.77,7.11.52,12.07.55,12.12,2.93,6.43,9.72,8.51,15.17,9.09-4.7-3.17-5.63-5.3-5.69-6.44-.03-.6.22-1.18.67-1.57.45-.39,1.07-.56,1.65-.45,0,0,1,.18,2.46.18,2.98,0,7.06-.68,9.62-3.93,2.69-3.39,5.89-5.43,8.41-6.62-3.8-1.85-7.87-2.78-12.15-2.78-7.3,0-12.68,2.78-12.73,2.81"/>
      <path class="cls-3" d="m381.74,170.47l.68-9.59-4.43-.32-.68,9.59c-.04.53-.28,1.01-.68,1.35-.39.34-.91.53-1.43.47l-9.59-.7-.31,4.36,9.58.69c.52.04,1.01.28,1.35.68.34.39.51.9.47,1.43l-1.64,22.69,4.45.33,1.62-22.73c.03-.52.28-1.01.68-1.35.39-.34.91-.51,1.43-.47l9.55.7.31-4.34-9.55-.69c-1.08-.08-1.9-1.02-1.82-2.1"/>
      <path class="cls-3" d="m116.49,235.93c-.73,0-2.05.28-2.79,2.18-.13.34-.36.64-.65.86-.55.41-1.29.52-1.92.27-.63-.25-1.11-.8-1.23-1.47-.39-2.17-1.82-2.94-3.03-2.94-1.14,0-2.53.71-2.98,2.72-.07.23-.49,1.66.34,3.47.55,1.2,3.74,5.48,6.24,8.72,3.15-2.61,7.2-6.08,8.02-7.15,1.19-1.57,1.09-3.06,1.08-3.12,0-2.37-1.6-3.54-3.09-3.54"/>
      <path class="cls-3" d="m68.55,71.19c.63.31,1.26.61,1.9.91.75.36,1.5.72,2.24,1.09.09.04.19.09.31.15.08.04.17.1.26.14.35.09.68.28.93.56.72.77.7,1.98-.05,2.72-.61.62-1.23,1.25-1.84,1.88-1.08,1.11-2.17,2.22-3.29,3.31-.91.87-2.04,2.2-2.29,3.69-.21,1.26-.03,2.52.47,3.38.29.51.76,1.04,1.17,1.34,1.48,1.06,4.16.85,5.63-.42,1.11-.95,1.7-2.16,2.45-3.7l.12-.24c.74-1.51,1.47-3.01,2.21-4.52,0,.03-.02.05-.02.05,0,0,.09-.18.2-.39.08-.15.18-.33.25-.46.09-.27.24-.51.44-.72.38-.39.9-.59,1.41-.59.44,0,.87.14,1.23.43.42.33.81.68,1.22,1.05l2.77,2.37c1.2,1.05,2.38,2.07,3.58,3.09l1.33,1.15c.72.62,1.43,1.24,2.16,1.85l.99.85c.67.58,1.33,1.16,2.04,1.68,1.07.81,2.38,1.27,3.65,1.27.9,0,1.69-.23,2.37-.67.44-.28.88-.69,1.14-1.06.61-.86.85-1.98.66-3.13-.26-1.49-1.17-2.89-2.51-3.85l-15.91-9.27c-.53-.31-.88-.84-.95-1.44-.09-.6.12-1.21.55-1.64l6.38-6.47c.84-1.23,1.24-2.65,1.11-4.02-.13-1.31-.72-2.41-1.69-3.1-1.96-1.41-5.16-.55-6.9,1.76l-3.95,8.04c-.28.57-.82.97-1.44,1.07-.63.1-1.27-.1-1.72-.55l-2.07-2.03c-.42-.43-.82-.86-1.23-1.28-.3-.32-.6-.62-.9-.93-2.04,1.93-4.05,3.91-6.01,5.92.25.12.49.24.74.35l.86.41Z"/>
      <path class="cls-3" d="m118.41,310.95c-1.98,0-3.84.97-5.38,2.81-.52.62-1.37.85-2.14.6-.9-.3-1.53-1.24-1.39-2.19.49-3.12-.55-5.09-1.49-6.19-1.19-1.39-2.94-2.19-4.77-2.19-2.42,0-4.58,1.33-6.07,3.74-.19.26-1.97,2.71-1.57,6.71.31,2.86,3.93,13.71,5.93,19.49,5.72-2.16,16.37-6.32,18.74-7.94,3.36-2.24,4.1-5.2,4.12-5.33.85-2.57.55-4.92-.78-6.78-1.24-1.73-3.18-2.75-5.21-2.75"/>
      <path class="cls-3" d="m141.15,344.95v.12l-.04,1.47c0,.94,0,1.9,0,2.87l-.08,7.68c0,.99-.03,1.98-.02,2.97l-.02,1.08c-.02,1.02-.04,2.02.02,3.04.12,2.04,1.31,4.57,3.64,5.27.44.14.98.21,1.46.21h.22c1.19-.09,2.33-.78,3.16-1.9.9-1.2,1.32-2.77,1.19-4.4l-3.32-18.82c-.11-.6.07-1.21.48-1.67.41-.45,1.01-.67,1.61-.64l9.47.73c1.7-.16,3.24-.94,4.25-2.13.79-.94,1.19-2.06,1.09-3.15-.21-2.61-2.95-4.65-6.1-4.44l-9.07,2.25c-.62.15-1.28,0-1.76-.42-.49-.42-.73-1.04-.67-1.68.08-.91.17-1.86.25-2.8.08-.84.14-1.51.22-2.18.2-1.68.37-3.27.26-4.8-.1-1.6-.64-2.95-1.49-3.82-.58-.55-1.32-1.04-1.85-1.21-.67-.23-1.32-.36-1.81-.3-1.81.14-3.63,1.67-4.22,3.5-.51,1.66,0,3.51.52,5.47l.73,2.71c.26.96.51,1.92.75,2.88.03.12.05.24.09.38.02.1.04.23.07.33.16.37.21.78.13,1.2-.2.98-1.08,1.64-2.09,1.56-.88-.08-1.75-.14-2.63-.21-1.65-.13-3.29-.25-4.93-.43-1.72-.2-3.45.03-4.53.67-1.13.68-2.03,1.69-2.41,2.69-.2.57-.3,1.3-.26,1.83.14,2,2.06,3.95,4.17,4.29,1.53.24,2.94-.1,4.65-.53l.25-.07c1.68-.41,3.38-.84,5.05-1.26-.08.03.08-.02.37-.09.19-.04.43-.1.57-.14.23-.09.49-.12.72-.12,1.09,0,1.96.89,1.96,1.96"/>
      <path class="cls-3" d="m42.39,175.08c-4.54-4.59-4.83-7.03-4.66-8,.09-.58.45-1.09.97-1.38.51-.29,1.13-.33,1.68-.11.03,0,2.66,1.02,5.9,1.02,2.97,0,5.46-.83,7.41-2.47,3.59-3.04,7.42-4.48,10.27-5.16-12.04-9.4-25.66-5.21-25.73-5.19-.5.15-1.04.09-1.5-.16-.46-.25-.8-.67-.95-1.17-1.04-3.51-1.56-6.01-1.58-6.12-.82-3.16-2.61-3.54-3.89-3.54,1.12,2.33.83,5.06.3,6.72-.03.09-.06.17-.1.26-3.37,6.93-2.13,12.66-2.13,12.72,1.65,7.41,8.57,10.94,14.01,12.59"/>
      <path class="cls-3" d="m68.5,174.18c1.45.49,3.07-.34,3.56-1.77.24-.7.19-1.47-.14-2.14-.33-.67-.91-1.17-1.61-1.41-.29-.1-.6-.15-.9-.15-1.21,0-2.28.76-2.66,1.89-.49,1.49.29,3.09,1.75,3.58"/>
      <path class="cls-3" d="m77.88,63.95l.09.09,2.82-5.74c.05-.1.1-.19.16-.28.02-.02.03-.04.05-.06-.12-.14-.2-.3-.26-.46-1.66,1.42-3.3,2.85-4.91,4.32.3.3.6.61.89.91.38.41.77.82,1.16,1.22"/>
      <path class="cls-3" d="m124.32,42.13c3.01.33,13.84-1.01,18.33-1.58-.86-5.57-2.53-15.7-3.49-18.1-.04-.12-.1-.21-.15-.32-3.86,1.55-7.67,3.22-11.41,4.99.16.49.14,1.02-.09,1.5-.45.91-1.55,1.39-2.49,1.03-.57-.22-1.14-.35-1.69-.44-2.18,1.09-4.34,2.21-6.46,3.38,0,.01-.02.02-.02.03-.93,2.32-.23,4.89,1.86,6.88.21.23,2.03,2.26,5.63,2.62"/>
      <path class="cls-3" d="m328.7,362.48c-1.34,6.13-.29,11.84,3.08,16.2,2.78,3.6,6.91,6.1,12.17,7.43.11.03.22.07.33.09.03-.13.04-.26.05-.38.86-5.34.21-10.13-1.99-14.1-2.67-4.82-7.5-8.04-13.65-9.24"/>
      <path class="cls-3" d="m401.49,136.23c.92,7.91,11.67,9.95,11.77,9.97.84.15,1.49.83,1.6,1.66.11.84-.32,1.67-1.08,2.04-.25.12-5.91,2.85-16.35,3.61,1.49,3.54,4.73,10.2,9.71,14.93,2.27-1.12,7.73-4.24,12.64-10.12-3.38-11.52-7.71-22.64-12.91-33.26-2.96-.88-6.35-1.45-10.2-1.67,1.87,2.89,4.19,7.43,4.82,12.84"/>
      <path class="cls-3" d="m340.64,110.74c.27-1.8-.98-3.5-2.79-3.78-.15-.02-.32-.03-.48-.03-1.62,0-3.02,1.2-3.26,2.8-.27,1.81.96,3.5,2.76,3.78.14.02.31.03.47.03,1.67,0,3.06-1.18,3.3-2.8"/>
      <path class="cls-3" d="m252.63,409.14l-10.92-9.8c-.12-.11-.24-.14-.4-.14-.03,0-.07,0-.1,0-.18.06-.32.18-.37.34l-5.57,13.99c-.09.2-.02.41.13.55.09.12.26.18.4.18.04,0,.08,0,.13,0l3.96-.87c1.4,6.1.61,10.65-.58,13.73,3.4-.36,6.77-.78,10.12-1.29,1.07-6.92-.38-13.02-.86-14.71l3.84-1.01c.09-.05.13-.09.2-.09.11-.11.16-.21.18-.34.07-.21.02-.43-.15-.54"/>
      <path class="cls-3" d="m326.36,237.4l-5.41,7.12c-.37.5-.98.82-1.62.78-.63-.02-1.22-.34-1.57-.87l-1.62-2.39c-.36-.53-.69-1.06-1.03-1.59-.89-1.4-1.73-2.72-2.74-3.85-.7-.74-1.88-1.69-3.35-1.85-.61-.06-1.58.02-2.16.21-.49.18-1.1.53-1.41.85-1.21,1.14-1.66,3.4-1.02,5.05.61,1.54,2.13,2.64,3.74,3.79l.71.52c.65.5,1.27.95,1.9,1.4.61.44,1.22.88,1.82,1.34-.02-.02-.03-.03-.03-.03,0,0,.16.12.35.28.05.05.12.11.18.16.27.14.51.35.7.61.55.78.45,1.84-.22,2.51-.09.08-.18.16-.27.23l-1.47,1.02c-1.5,1.04-3,2.09-4.55,3.09-1.5.96-2.54,2.08-2.92,3.14-.49,1.21-.56,2.48-.22,3.49.21.53.57,1.12.92,1.5,1.2,1.28,3.92,1.6,5.58.64,1.27-.74,2.09-1.83,3.13-3.21l.14-.19c1.02-1.33,2.02-2.66,3.01-3.96l.19-.24c.11-.13.27-.32.37-.46.14-.26.33-.48.59-.66.34-.24.74-.36,1.14-.36.57,0,1.13.25,1.52.72.24.29.46.58.68.88l.27.36c.46.55.96,1.19,1.45,1.82l1.73,2.21c.66.85,1.31,1.68,1.99,2.53l.84,1.07c.68.86,1.34,1.71,2.02,2.55.38.45.76.94,1.15,1.42.44.57.9,1.13,1.37,1.69,1.08,1.21,2.71,1.98,4.22,1.98.54,0,1.05-.1,1.51-.29.5-.19.99-.5,1.27-.78,1.06-.98,1.3-2.14,1.32-2.95.05-1.52-.57-3.08-1.72-4.3l-13.84-12.08c-.46-.4-.71-.99-.67-1.59.03-.61.35-1.17.85-1.51l7.48-5.11c2.14-2.13,2.5-5.29.78-7.11-1.65-1.75-4.95-1.55-7.09.41"/>
      <path class="cls-3" d="m401.25,186.72l25.17,3.07c-.3-2.24-.63-4.46-1-6.68l-17.71-2.15-6.46,5.76Z"/>
      <path class="cls-3" d="m180.44,256.93c-.2.22-1.89,2-2.01,5.29-.06,2.13,1.48,10.45,2.72,16.57,1.48-.34,3.08-.71,4.7-1.1l1.43-22.62c-.69-.35-1.47-.54-2.26-.54-1.69,0-3.31.86-4.58,2.41"/>
      <path class="cls-3" d="m210.53,391.73c-1.62-2.1-4.08-3.21-6.56-3.22-1.74,0-3.49.56-4.97,1.68-3.62,2.77-4.31,7.94-1.56,11.54,1.62,2.12,4.03,3.21,6.5,3.21h.21l17.71,23.2c3.95-.07,7.86-.26,11.75-.55l-21.78-28.53c.78-2.44.35-5.17-1.3-7.34m-5.08,6.93c-1.12.84-2.67.61-3.51-.47-.85-1.07-.6-2.67.48-3.49,1.1-.85,2.69-.63,3.52.46.84,1.11.61,2.65-.49,3.5"/>
      <path class="cls-3" d="m174.57,297c-.96.5-2.14.13-2.65-.83l-6.63-12.67-10.24-4.38-2.3,10.9,18.23,34.93,12.29-6.42.63-10.03-3.92,2.05-1.66-3.27c-.61-1.17-.16-2.62,1.03-3.23,1.17-.64,2.62-.2,3.26,1.01l1.34,2.65,1.02-16.11-10.42,5.4Zm-13.62-1.46l-1.66-3.2c-.61-1.2-.15-2.65,1-3.24,1.17-.63,2.64-.16,3.24.99l1.71,3.25-4.29,2.2Z"/>
      <path class="cls-3" d="m389.35,95.62l-1.9,13.11,11.5,1.67c-2.99-5.07-6.2-10.01-9.59-14.79"/>
      <path class="cls-3" d="m229.63,378.21c-.77-.18-1.36-.79-1.49-1.57-.18-.96.37-1.95,1.31-2.26,3-.99,4.03-3.16,4.05-4.94-4.64,1.91-9.95,3.22-15.88,3.22-.61,0-1.2-.06-1.8-.09-1.45,1.45-2.92,2.95-4.24,4.32,4.42,4.03,10.48,9.32,12.29,10.33,2.73,1.5,5.09.97,5.1.97,3.35-.51,4.84-2.87,4.93-5,.08-1.91-1-4.22-4.25-4.97"/>
      <path class="cls-3" d="m270.62,333.95c.57-.16,1.18-.06,1.67.28.04.03,4.51,3.08,9.67,3.08,1.86,0,3.59-.4,5.17-1.18,4.88-2.48,9.56-2.95,12.61-2.89-9.28-11.9-23.12-12.55-26-12.55-.91,0-.69.02-.75.02-.49,0-.96-.18-1.32-.51-.38-.36-.62-.85-.65-1.37-.18-4.01-.09-6.83-.09-6.95-.04-1.9-.5-4.47-3.76-5.03.73,2.86-.36,5.86-1.31,7.41-.05.07-.09.14-.15.21-5.4,6.63-5.54,13.12-5.55,13.18-.14,8.84,6.99,14.55,12.55,17.66-4.09-6.47-3.79-9.24-3.36-10.24.23-.55.7-.95,1.26-1.11"/>
      <polygon class="cls-3" points="283.39 56.17 320.58 45.3 324.8 36.26 325.06 35.72 324.27 35.95 275.72 50.12 283.39 56.17"/>
      <path class="cls-3" d="m371.61,346.92c-1.82,0-3.51.76-4.63,2.08-1.2,1.41-1.66,3.32-1.31,5.53.13.77-.21,1.54-.86,1.95-.83.55-2,.44-2.65-.33-1.95-2.3-4-2.78-5.39-2.78-1.87,0-3.65.9-4.76,2.41-1.26,1.69-1.54,3.93-.81,6.28.07.3.72,3.09,3.85,5.29,1.04.74,3.82,2.07,7.03,3.5,5.85-5.51,11.37-11.35,16.55-17.5-.38-1.69-1.07-2.7-1.08-2.72-1.43-2.42-3.55-3.71-5.94-3.71"/>
      <path class="cls-3" d="m182.1,337.24c-1.43,1.16-2.71,2.48-3.76,4.02-2.97,4.33-4.19,9.79-3.66,16.08,2.8-.38,5.34-1.08,7.64-2.06-.81-.96-1.26-1.55-1.26-1.55l1.04-16.49Z"/>
      <path class="cls-3" d="m151.32,412.73c-2.43-2.13-13.85-8.39-19.82-11.58-.96,1.94-2.2,4.46-3.46,7.09,8.72,4.11,17.75,7.64,27.07,10.53-.29-1.22-1.15-3.74-3.79-6.04"/>
      <path class="cls-3" d="m184.29,425.57c5.45.87,10.98,1.54,16.56,1.97-1.37-3.08-2.89-6.33-4.01-8.68-4.08,2.07-9.13,4.73-12.55,6.71"/>
      <path class="cls-3" d="m360.96,276.2c-4.04,2.06-6.72,3.71-10.78,7.44l1.64,2.31s.09,0,.14,0c.65,0,1.29.09,1.9.27.61.17,1.09.63,1.3,1.22.21.59.13,1.25-.22,1.77-.12.18-2.96,4.58-1.33,10.47,1.48,5.33,6.09,10.18,13.73,14.43-.39-3.21-.48-7.88,1.15-12.59,2.38-6.95-5.76-12.96-5.85-13.02-.68-.5-.97-1.38-.73-2.19.26-.81,1-1.36,1.85-1.37.75,0,6.49.11,15.11,3.53.18-3.62.13-10.39-2.1-16.25-2.65.03-8.92.52-15.8,3.99"/>
      <path class="cls-3" d="m340.54,338.06l-8.55-5.38c-.54-.34-.88-.93-.91-1.56-.03-.64.25-1.26.75-1.65.58-.46,1.14-.91,1.72-1.36l.85-.68c.57-.46,1.18-.93,1.78-1.4,1.43-1.09,2.77-2.12,3.87-3.32,1.18-1.28,1.84-2.73,1.88-4.11,0-.81-.18-1.81-.47-2.52-.26-.57-.72-1.21-1.12-1.55-1.5-1.35-4.2-1.62-6-.72-1.77.87-2.88,2.72-4.05,4.68l-.47.79c-.46.73-.89,1.43-1.31,2.12-.48.78-.96,1.56-1.45,2.33-.05.09-.11.17-.18.24h0s-.1.14-.19.28c-.14.35-.38.67-.7.91-.84.59-1.98.44-2.65-.35-1.75-2.1-3.5-4.19-5.17-6.32-1.29-1.67-2.65-2.74-3.96-3.09-1.44-.43-2.93-.37-4.01.11-.64.29-1.29.76-1.64,1.16-1.55,1.74-1.66,4.7-.29,6.65.96,1.41,2.24,2.22,3.86,3.25l.31.2c1.58.99,3.17,1.99,4.75,2.99.06.03.12.07.17.12.12.08.43.29.62.41.25.1.48.26.68.46.74.78.73,2.02-.05,2.77-.37.37-.77.72-1.15,1.06l-1.38,1.3c-.57.55-1.14,1.08-1.69,1.62l-1.45,1.34c-.83.77-1.66,1.53-2.48,2.31-.52.49-1.05.99-1.59,1.48-.73.67-1.45,1.34-2.14,2.02-.43.41-.84.79-1.26,1.17-.68.63-1.37,1.26-2.03,1.95-1.56,1.68-2.55,4.61-1.38,6.9.28.54.7,1.1,1.08,1.42,2.25,2.01,6.09,1.38,8.42-1.2l12.2-16.63c.37-.5.93-.79,1.54-.81.6-.02,1.19.25,1.57.72l6.47,7.92c2.6,2.23,6.46,2.34,8.36.2.94-1.04,1.34-2.46,1.15-3.99-.2-1.59-1.02-3.09-2.28-4.27"/>
      <path class="cls-3" d="m299.12,23.32c-2.17-.91-4.36-1.78-6.56-2.62-.54,4.64-.69,8.18-.73,10.35l8.78-2.57-1.5-5.16Z"/>
      <path class="cls-3" d="m261.18,397.69l9.68,23.72c2.4-.62,4.78-1.31,7.15-2.01l-9.99-24.52-6.84,2.8Z"/>
      <path class="cls-3" d="m309.58,384.88c-.58.12-1.19-.02-1.65-.38-.46-.37-.73-.92-.75-1.51,0-.1-.3-10.29-7.78-14.12-5.23-2.69-8.6-6.49-10.57-9.33-5.23,17.47,5.41,30.78,5.89,31.37.33.4.49.93.44,1.45-.06.52-.32,1-.73,1.33-3.35,2.67-5.82,4.36-5.93,4.43-1.67,1.25-2.58,2.65-2.65,4.12-.04.95.27,1.88.67,2.66,2.48-3.19,7.03-3.61,7.27-3.63.08,0,.18-.02.27,0,.56.03,1.11.04,1.65.04h0c8.24,0,13.28-3.53,13.33-3.58,7.98-5.59,8.26-15.8,7.35-22.61-3.06,7.97-5.69,9.49-6.84,9.75"/>
      <path class="cls-3" d="m158.78,223.89c.86-.08,1.65.39,1.99,1.17.33.78.14,1.68-.49,2.25-.19.17-4.36,3.86-13.04,6.96,2.15,2.72,6.37,7.44,11.56,10.25,1.84-1.66,6.08-5.97,8.84-12.73,1.31-3.22,2.14-5.72,2.72-9.37l-13.31,1.5c1,.04,1.67-.02,1.72-.02"/>
      <path class="cls-3" d="m427.93,206.07c-.92,1.87-2.16,4.24-3.81,7.03-4.95,8.57-9.49,14.62-9.69,14.87-.33.45-.85.7-1.39.7-.22,0-.44-.04-.66-.13-.73-.29-1.18-1.05-1.08-1.83l3.36-27.65c.12-.96.98-1.66,1.95-1.52.04,0,.08,0,.11,0l10.68,1.3c-.15-1.68-.32-3.36-.51-5.04l-30.44-3.72c-.1-.01-.19-.07-.29-.09-.12-.04-.23-.06-.34-.12-.15-.08-.27-.18-.4-.29-.06-.05-.14-.08-.2-.14,0-.02-.02-.04-.03-.06-.09-.11-.15-.24-.21-.37-.05-.1-.12-.19-.15-.3-.03-.11-.03-.23-.05-.34-.02-.14-.04-.28-.03-.42v-.06c0-.1.07-.19.09-.28.04-.13.06-.26.13-.38.07-.14.16-.24.26-.36.06-.06.09-.14.15-.2l10.37-9.24s.03-.02.04-.03c.13-.1.27-.16.41-.23.09-.04.17-.11.27-.14.11-.04.23-.03.34-.05.14-.02.28-.04.43-.03.02,0,.04,0,.06,0l17.41,2.12c-1.02-5.48-2.24-10.88-3.67-16.2-6.52,6.94-13.23,9.61-13.56,9.74-.23.09-.47.14-.71.14-.47,0-.92-.17-1.29-.48-8.49-7.34-12.57-19.44-12.74-19.96-.19-.59-.09-1.23.26-1.75.36-.51.93-.82,1.55-.84,5.15-.17,9.24-.88,12.16-1.6-3.89-1.86-8.42-5.3-9.13-11.43-.93-8.01-6.31-13.98-6.36-14.04-.53-.58-.67-1.41-.35-2.12.32-.71,1.02-1.17,1.79-1.17,4.41,0,8.35.39,11.88,1.11-1.01-1.92-2.04-3.83-3.1-5.72l-16.52-2.4c-.51-.08-.98-.35-1.29-.77-.32-.42-.44-.94-.37-1.46l2.77-19.02c-15.79-20.99-35.43-38.93-57.85-52.79l-4.42,9.47s-.03.04-.03.06c-.03.05-.07.1-.1.15-.09.15-.2.28-.32.39-.05.05-.1.09-.16.13-.19.14-.38.25-.61.32,0,0,0,0,0,0h0s-39.01,11.41-39.01,11.41c-.19.06-.37.08-.55.08-.21,0-.43-.04-.62-.11-.03-.01-.07-.04-.1-.05-.16-.06-.32-.14-.47-.26,0,0-.02,0-.03-.01l-11.46-9.05s-.04-.06-.07-.09c-.14-.12-.27-.27-.37-.44-.04-.08-.08-.16-.11-.24-.03-.08-.09-.15-.11-.23-.02-.06,0-.11-.02-.16-.03-.13-.03-.26-.03-.4,0-.12,0-.24.03-.37.02-.12.06-.23.1-.34.05-.13.11-.25.19-.36.03-.04.04-.1.07-.14.04-.05.11-.08.15-.13.09-.09.2-.18.31-.26.11-.08.23-.14.36-.19.06-.03.11-.07.18-.09l48.57-14.18c-5.11-2.83-10.36-5.47-15.72-7.87l1.13,3.91c.31,1.04-.29,2.13-1.33,2.44-.04.02-.09.03-.13.04l-13.04,3.82c-.19.05-.37.08-.55.08-.4,0-.8-.12-1.14-.36-.49-.35-.79-.9-.83-1.5,0-.22-.28-5.43.84-14.48-3.47-1.25-7-2.41-10.56-3.47l5.72,19.59c.31,1.04-.29,2.13-1.32,2.44-.05.02-.09.03-.15.05l-13.04,3.79c-.18.05-.36.08-.55.08-.4,0-.8-.12-1.13-.36-.49-.35-.8-.9-.83-1.49,0-.22-.3-5.6.9-14.94.53-4.4,1.16-8.34,1.74-11.55-3.33-.85-6.69-1.61-10.08-2.3-.15.89-.33,1.8-.58,2.75-.06.7-.2,4.24,2.46,5.22.68.25,1.16.85,1.26,1.57.1.72-.2,1.43-.78,1.86-.29.22-2.99,2.12-6.28,2.12-2.34,0-5.57-.96-7.75-5.55-.04-.09-.78-1.86-2.01-4.39-2.65,1.08-7.97,2.82-14.58,2.82-7.43,0-14.34-2.18-20.55-6.48-.65-.45-.97-1.25-.8-2.03.17-.77.78-1.38,1.56-1.52.02,0,.66-.14,1.66-.48-2.81.06-5.61.18-8.38.35.34,6.45-1.09,13.9-6.95,20.74-5.78,7.12-13.98,10.88-23.72,10.88-3.45,0-6.48-.46-8.73-.96l-.1.33c-.09.47-.3.99-.68,1.5l-.18.25-.22.21c-.7.65-1.44.94-2.05,1.05-.27.06-.55.09-.84.09-1.06,0-2.07-.43-2.87-1.21l-.13-.13-.12-.14-9.21-11.25c-.9-1.07-1.18-2.51-.76-3.83.39-1.25,1.33-2.22,2.54-2.62l14.14-4.93.21-.07.22-.05c.28-.06.57-.09.86-.09,1.07,0,2.07.41,2.84,1.17,1.04.99,1.46,2.41,1.13,3.84l-.02.06v.05s-.1.33-.1.33c.99.14,1.96.2,2.89.2,1.87,0,3.45-.27,4.75-.65l-10.79-8.98c-8.24,2.05-16.29,4.57-24.11,7.55.04.1.09.18.14.28,1.46,3.65,3.78,19.21,4.03,20.98.08.52-.06,1.05-.37,1.47-.32.42-.79.7-1.31.77-.58.08-14.42,1.91-19.81,1.91-.58,0-1.07-.02-1.44-.06-5.22-.53-7.96-3.71-8.07-3.85-2.08-1.97-3.23-4.55-3.31-7.18-10.27,5.93-20,12.69-29.09,20.21.09.05.17.09.25.16,1.55-1.03,3.33-1.61,5.15-1.61,1.68,0,3.28.51,4.61,1.46,1.89,1.36,3.07,3.46,3.3,5.92.11,1.13,0,2.28-.29,3.38.02,0,.04.01.07.03.94.44,1.33,1.57.87,2.51-.45.94-1.59,1.33-2.54.87h0s0,0-.02.02c-.06.08-.13.16-.2.24l-4.72,4.79,13.86,8.08c.73-.67,1.86-.66,2.57.04.72.73.73,1.85.05,2.59.84,1.19,1.42,2.5,1.65,3.87.37,2.19-.1,4.35-1.34,6.08-.55.78-1.36,1.53-2.2,2.07-1.3.85-2.86,1.3-4.51,1.3-.93,0-1.87-.17-2.78-.44-.45.92-1.58,1.29-2.51.84-.94-.45-1.33-1.6-.86-2.54,0,0,0-.02.02-.03-.72-.54-1.42-1.13-2.12-1.74l-.95-.81c-.75-.63-1.48-1.26-2.21-1.9l-1.31-1.12c-1.2-1.03-2.4-2.06-3.6-3.1l-2.01-1.72c-.53,1.08-1.06,2.16-1.58,3.24l-.13.25c-.44.92-.91,1.85-1.5,2.74.02.02.04.03.06.05.74.75.75,1.94,0,2.67-.74.75-1.92.75-2.67,0-2.83,1.93-7.08,2.08-9.79.12-.85-.62-1.69-1.56-2.26-2.53-.96-1.65-1.31-3.84-.95-6.02.04-.26.15-.48.2-.72-.89-.49-1.26-1.58-.82-2.49.45-.93,1.57-1.3,2.5-.88.51-.68,1.05-1.31,1.55-1.78,1.07-1.02,2.1-2.08,3.13-3.14-.22-.1-.44-.21-.66-.31-.64-.31-1.29-.61-1.92-.93l-.81-.38c-.62-.29-1.27-.61-1.91-.97-23.67,25.19-41.22,56.19-50.25,90.64,4.52,2.55,9.53,7.34,14.42,15.96.39.67.33,1.51-.13,2.14-.47.63-1.26.92-2.01.75-.03,0-2.11-.46-5.07-.46-3.46,0-6.63.59-9.4,1.77-.71.3-1.43.51-2.16.67-1.66,10.67-2.54,21.6-2.54,32.74,0,13.41,1.27,26.53,3.67,39.25l26.73-22.93c.34-.3.78-.46,1.24-.47l13.83-.31c.59-.03,1.15.23,1.54.68.38.45.55,1.04.44,1.62l-2.41,13.63c-.08.45-.31.86-.65,1.15l-9.6,8.24,10.79,12.57c.38.45.55,1.04.44,1.62l-2.42,13.71c-.08.45-.31.86-.66,1.15l-11.77,10.09c-.37.32-.82.47-1.27.47-.55,0-1.11-.23-1.5-.69l-21.08-24.58c3.74,13.79,8.84,27.02,15.14,39.53,1.92-4.26,4.45-7.2,6.82-9.15,5.97-4.91,13.96-6.41,22.49-4.24.18.04.32.14.47.22h0c.19.12.35.25.5.41.04.04.09.09.12.13.08.12.14.24.2.38.06.12.1.24.14.38.02.07.02.14.03.22,0,.13.05.26.03.4-.84,8.77-4.96,15.77-11.59,19.73-2.97,1.77-7.16,3.33-12.7,3.42,15.94,27.1,37.76,50.3,63.71,67.88l30.07-27.6c.05-.05.12-.07.17-.1.11-.09.22-.15.34-.21.13-.06.25-.09.38-.12.07-.02.12-.06.2-.07.06,0,.11,0,.17,0,.12,0,.24,0,.37.03.14.02.26.04.39.09.1.04.2.09.29.15.13.07.24.15.35.26.03.03.09.04.12.09.05.05.07.12.1.17.09.1.15.22.21.34.05.12.09.25.13.38,0,.07.05.12.06.2l1.91,15.3c0,.06,0,.11,0,.16,0,.14,0,.26-.03.39-.02.13-.04.25-.09.36-.04.12-.09.22-.16.32-.07.12-.14.23-.24.33-.03.04-.05.09-.09.14l-20.06,18.41c3.35,1.9,6.78,3.7,10.24,5.41,2.08-4.34,3.97-8.09,4.4-8.94.24-.47.65-.83,1.15-.98.5-.17,1.05-.12,1.52.12,1.91,1.01,18.83,9.94,22.36,13.05,4.69,4.08,5.2,8.95,5.22,9.15.07.37.12.73.16,1.09,6.31,1.81,12.74,3.33,19.28,4.56,3.59-2.75,16.75-9.37,18.29-10.14.48-.23,1.02-.27,1.52-.1.49.17.9.53,1.14,1.01.49,1.02,3.46,7.19,5.77,12.5,4.05.23,8.12.36,12.23.36l-15.16-19.86c-3.03-.42-5.77-2-7.68-4.49-1.9-2.48-2.72-5.57-2.29-8.67.42-3.11,2.02-5.87,4.5-7.75,2.06-1.58,4.52-2.41,7.1-2.41,3.69,0,7.09,1.67,9.34,4.6,1.89,2.48,2.69,5.59,2.27,8.61l20.67,27.08c.65-1.9,1.09-4.46.78-7.73l-.31.07c-.31.07-.62.1-.94.1-1.15,0-2.23-.48-2.99-1.31-1.09-1.17-1.38-2.83-.79-4.2l5.53-13.9c.41-1.13,1.32-2.03,2.51-2.44.26-.09.55-.15.83-.18.1,0,.32-.02.42-.02,1.01,0,1.94.35,2.74,1.04l10.82,9.72c1.16.96,1.68,2.53,1.32,4.01-.17.8-.58,1.52-1.19,2.1-.31.29-.67.51-1.06.68-.21.1-.44.19-.66.24l-.59.15c.51,2.89.89,7.04.35,11.59,4.7-.8,9.36-1.76,13.96-2.86l-10.21-25.01c-.41-1,.08-2.15,1.07-2.56l10.48-4.29c.48-.2,1.02-.19,1.5,0,.49.2.86.59,1.06,1.07l10.87,26.67c21.04-6.73,40.65-16.66,58.24-29.25-5.62-2-9.18-5.09-11.35-7.91-4.47-5.79-5.66-13.38-3.37-21.37.05-.17.14-.29.22-.43,0-.02.02-.04.04-.06.1-.18.24-.31.39-.45.05-.04.1-.09.16-.14.12-.08.24-.13.37-.18.13-.06.26-.1.39-.13.08-.02.14-.02.22-.02.13-.02.26-.05.39-.03,8.26,1.05,14.75,5.14,18.3,11.53,1.65,2.96,3.01,7.18,2.81,12.7,3.54-2.81,7-5.74,10.35-8.77-2.73-1.26-5.09-2.42-6.16-3.19-4.46-3.14-5.35-7.36-5.39-7.53-1.06-3.4-.55-6.88,1.45-9.59,1.85-2.51,4.82-4.01,7.93-4.01,1.78,0,3.51.48,5.09,1.39.34-1.64,1.06-3.13,2.12-4.37,1.88-2.19,4.65-3.46,7.62-3.46,3.77,0,7.21,2.06,9.22,5.5,0,0,.34.48.73,1.32,1.46-1.79,2.89-3.62,4.28-5.47l-1.43-7.09-30.86,6.26c-1.08.2-2.11-.48-2.32-1.54l-2.26-11.1c-.1-.51,0-1.05.29-1.48.29-.44.73-.74,1.25-.84l30.87-6.23-2.7-13.46c-.1-.51,0-1.05.29-1.48.29-.44.74-.74,1.26-.84l11-2.19c1.05-.21,2.09.48,2.31,1.54l2.71,13.42,6.58-1.33c2.02-3.73,3.93-7.53,5.73-11.38-6.82-1.32-13.77-4.62-17.82-12.08-.17-.3-4.23-7.8-2.31-18.95,0-.78-.16-5.15-3.59-6.07-.7-.19-1.24-.75-1.4-1.46-.16-.7.08-1.44.61-1.92.15-.12,3.51-3.04,7.64-3.04,2.36,0,5.72.96,8.38,5.5.05.09,1.14,2.14,2.93,5.08,3.09-1.62,10.07-4.65,18.98-4.93.85-3.44,1.62-6.91,2.31-10.42l-4.11-2.74-6.79,10.19c-.29.43-.74.74-1.26.84-.51.09-1.04,0-1.48-.29l-8.46-5.66c-.91-.61-1.14-1.83-.54-2.73l6.78-10.14-10.17-6.8c-.9-.6-1.14-1.82-.55-2.72l5.67-8.57c.29-.44.74-.74,1.26-.85.51-.1,1.04,0,1.48.29l10.18,6.8,6.76-10.13c.6-.9,1.82-1.15,2.72-.55l2.24,1.49c.13-3.03.21-6.07.21-9.13,0-3.86-.11-7.7-.32-11.52m-32.57-36.59c1.09.08,1.9,1.02,1.82,2.1l-.6,8.26c-.04.52-.27,1.01-.67,1.35-.39.34-.91.52-1.43.47l-9.56-.7-1.61,22.74c-.04.52-.28,1-.68,1.35-.36.31-.81.48-1.28.48-.05,0-.1,0-.14,0l-8.38-.62c-1.09-.08-1.89-1.02-1.82-2.1l1.64-22.69-9.58-.69c-1.08-.08-1.9-1.02-1.82-2.1l.59-8.29c.03-.52.27-1,.68-1.35.39-.34.9-.52,1.43-.47l9.59.7.69-9.59c.03-.52.27-1.01.68-1.35.39-.34.91-.52,1.42-.47l8.36.61c1.09.08,1.9,1.02,1.82,2.1l-.68,9.58,9.55.69Zm-10.11-38.98c.44.14.8.42,1.05.81l7.33,11.37c.32.5.41,1.11.22,1.67-.18.56-.6,1.01-1.14,1.23l-12.58,4.94c-.42.17-.89.18-1.32.04l-11.71-3.79-5.02,15.38c-.18.56-.6,1.01-1.14,1.22l-12.6,4.94c-.23.09-.47.14-.72.14-.2,0-.41-.03-.61-.1l-14.44-4.67c-.5-.16-.91-.51-1.14-.98-.24-.46-.28-1-.12-1.5l13.54-41.73c.33-1.03,1.44-1.6,2.48-1.26l37.92,12.29Zm-48.9-13.53c-3.7-.57-6.26-4.05-5.7-7.76.54-3.62,3.99-6.25,7.72-5.71,3.71.57,6.27,4.05,5.72,7.76-.52,3.35-3.36,5.78-6.76,5.78-.32,0-.66-.03-.98-.07m44.43-19.45c.28.45.37.99.24,1.5-.33,1.33-3.2,13.03-4.59,15.72-1.92,3.66-4.89,4.78-5.22,4.9-1.1.54-2.43.84-3.75.84-3.09,0-5.89-1.8-7.15-4.58-.79-1.78-.89-3.7-.32-5.53-2.79-.45-5.09-2.36-6.04-5.11-1.16-3.33-.04-6.95,2.84-9.23.11-.12,2.49-2.32,6.57-2.37,3.34,0,14.89,2.67,16.19,2.97.51.12.96.44,1.23.88m-54.73-23.15c.03-.3,1.03-7.87,8.25-14.93.41-.57,2.47-3.67.6-6-.46-.56-.55-1.33-.27-2,.28-.67.91-1.13,1.63-1.19,0,0,.27-.02.74-.02,1.5,0,5.26.29,7.69,2.97,1.66,1.83,2.35,4.33,2.04,7.42,0,.08-.28,2.05-.54,4.98,5.59.84,21.27,4.68,28.96,21.68.32.72.19,1.57-.35,2.15-.55.58-1.37.78-2.12.51-.03,0-2.81-.99-6.8-.99-2.82,0-5.54.47-8.11,1.41-1.69.62-3.47.93-5.29.93-3.92,0-7.41-1.43-9.86-2.8.67,2.07,2.06,5.26,4.95,9.98.32.35.52.82.52,1.34,0,1.09-.89,1.92-1.98,1.96h-.04c-.26,0-.54-.05-.79-.17-.88-.39-21.55-9.73-19.23-27.24m-1.31,30.49c3.08,3.92,3.87,8.04,3.98,10.8.44-.06.9.03,1.3.28l5.19,3.21c.83.51,1.15,1.55.77,2.45-2.97,6.95-5.23,10.21-8.88,14.52-7.65,9-16.48,12.07-16.86,12.2-.2.07-.42.1-.63.1-.5,0-.98-.19-1.36-.54-8.15-7.73-11.66-20.01-11.81-20.53-.17-.59-.04-1.24.33-1.73.37-.49.96-.75,1.59-.77h.9c4.76,0,8.56-.49,11.34-1.04-3.81-2.03-8.19-5.68-8.61-11.83-.56-8.05-5.67-14.27-5.72-14.33-.5-.6-.6-1.43-.25-2.14.34-.7,1.08-1.15,1.84-1.09,12.87.59,21.91,4.1,26.88,10.43m-34-37.66c1.79-2.48,4.68-3.95,7.73-3.95,1.61,0,3.19.41,4.65,1.19.32-1.58,1-3.01,2.01-4.21,1.81-2.16,4.51-3.39,7.41-3.39,3.6,0,6.8,1.87,8.79,5.13,0,0,2.51,3.35,1.96,8.54-.42,3.92-5.74,18.74-6.34,20.42-.18.49-.55.9-1.03,1.12-.26.12-.54.18-.82.18-.23,0-.47-.04-.69-.12-1.67-.63-16.39-6.19-19.64-8.37-4.36-2.94-5.27-7.06-5.31-7.24-1.06-3.21-.61-6.67,1.29-9.29m3.78,40.95c.28.34.45.78.45,1.26,0,1.09-.95,1.98-1.99,1.97-.08,0-.18,0-.27-.02-1.53-.2-2.5,1.7-2.71,2.17-1.63,7.07-5.93,10.54-6.12,10.69-2.67,2.17-5.9,3.27-9.57,3.27h0c-7.43,0-14.14-4.55-14.42-4.75-.71-.49-1.02-1.38-.76-2.2.25-.82,1.02-1.38,1.88-1.38,2.88,0,4.94-.18,6.42-.41-2.32-1.57-4.88-4.1-5.64-7.95-1.14-5.61-4.98-8.7-5.01-8.73-.62-.49-.89-1.31-.67-2.07.2-.76.85-1.32,1.64-1.42,1.18-.15,2.36-.23,3.51-.23,10.69,0,17.55,6.32,20.23,9.36,1.39-1.04,2.25-1.76,2.27-1.77,1.57-1.19,3.11-1.77,4.63-1.77,3.06,0,5.21,2.35,6.15,4m-56.05-78.4c.32-3.51,3.41-6.16,7.02-5.81,3.55.37,6.15,3.53,5.82,7.06-.31,3.32-3.07,5.84-6.45,5.84-.19,0-.38,0-.57-.02-1.77-.18-3.34-1.02-4.43-2.38-1.08-1.33-1.57-3-1.38-4.69m-31.3-10.27c.31-.72,1.01-1.18,1.78-1.19h.78c11.18,0,19.2,2.71,23.85,8.05,2.84,3.27,3.77,6.8,4.04,9.26.38-.03.76.03,1.1.22l4.76,2.58c.86.47,1.25,1.48.91,2.4-2.3,6.36-4.15,9.39-7.18,13.41-6.38,8.41-14.12,11.64-14.44,11.77-.25.1-.5.14-.75.14-.45,0-.91-.16-1.27-.46-7.66-6.51-11.43-17.3-11.59-17.75-.2-.59-.12-1.24.23-1.75.35-.51.92-.83,1.54-.85,4.22-.19,7.63-.77,10.17-1.39-3.4-1.69-7.14-4.72-7.81-9.99-.89-7.04-5.7-12.27-5.75-12.32-.53-.57-.68-1.4-.37-2.12m-29.58,25.86c2.23-3.28,6.67-4.56,10.34-3.06.24-1.35.79-2.6,1.64-3.67,1.6-2.03,4.13-3.23,6.79-3.23,2.97,0,5.7,1.47,7.5,4.05,0,0,2.35,2.83,2.19,7.38-.16,3.43-3.92,16.49-4.35,17.97-.14.5-.49.93-.96,1.18-.29.16-.61.24-.93.24-.2,0-.39-.03-.59-.09-1.46-.45-14.4-4.48-17.34-6.21-3.98-2.31-5.04-5.9-5.08-6.05-1.15-2.87-.89-6.04.79-8.5m-18.47,20.18v-11.28c0-1.09.88-1.97,1.96-1.97h9.6c1.08,0,1.96.88,1.96,1.97v11.28h11.24c1.08,0,1.96.88,1.96,1.97v9.45c0,1.09-.88,1.97-1.96,1.97h-11.24v26.38c0,1.09-.88,1.97-1.96,1.97h-9.6c-1.08,0-1.96-.88-1.96-1.97v-26.34h-11.3c-1.08,0-1.96-.88-1.96-1.97v-9.49c0-1.09.88-1.97,1.96-1.97h11.3Zm-.99,52.22c-.33.42-.84.67-1.37.67h-.03l-11.84-.28h-.1c-.97-.02-1.73-.82-1.71-1.79l.46-19.43c.02-.68.44-1.3,1.07-1.57.63-.27,1.37-.14,1.86.32.19.17,4.54,4.24,8.06,11.23,2.95,5.69,3.89,9.16,3.93,9.31.14.53.02,1.1-.32,1.53m-50.01-42.66c-.16-.23-4.43-6.36-3.78-16.26-.08-.7-.62-4.19-3.41-4.64-.71-.12-1.31-.61-1.55-1.3-.23-.68-.08-1.44.42-1.98.13-.14,3.22-3.44,7.3-3.44,1.87,0,4.62.71,7.13,4.11.06.09,1.12,1.67,2.81,3.93,3.2-2.1,10.78-6.24,20.69-6.24,4.92,0,9.8,1.04,14.49,3.1.73.32,1.19,1.04,1.17,1.83,0,.79-.5,1.5-1.24,1.79-.06.03-6.69,2.78-10.49,10.01-2.91,5.46-8.28,7.66-12.12,8.54,1.88,1.08,5.03,2.5,10.27,4.04.83.25,1.4,1,1.41,1.86.02.86-.54,1.63-1.36,1.9-.22.07-5.56,1.78-12.09,1.78-8.8,0-15.6-3.13-19.64-9.05m30.6,14.1l-.64,27.03c-.02.95-.8,1.71-1.75,1.71-.03,0-.06,0-.09,0-.03,0-.04,0-.07,0l-11.59-.27c-.54-.01-1.03-.27-1.36-.69-.32-.42-.43-.97-.3-1.49.05-.18,1.21-4.65,4.6-11.95,3.97-8.75,7.78-15.02,7.95-15.29.42-.67,1.23-.99,1.99-.76.76.22,1.27.93,1.25,1.72m-34.49,25.85c.04-.19,1.19-4.66,4.59-11.95,3.98-8.75,7.79-15.02,7.96-15.29.41-.67,1.22-.99,1.98-.77.76.23,1.27.93,1.26,1.72l-.63,27.04c-.03.95-.8,1.71-1.75,1.71-.04,0-.09,0-.13,0h-.03l-11.59-.27c-.54-.01-1.03-.27-1.36-.69-.32-.42-.43-.97-.3-1.48m-.55,8.65c.02-.15.05-.3.1-.45.04-.08.06-.16.1-.23.09-.18.21-.33.36-.47.03-.03.05-.06.08-.08.07-.06.11-.14.2-.2.1-.07.22-.1.34-.15.04-.02.09-.04.14-.06.16-.05.32-.09.5-.1.06,0,.11-.03.17-.03l50.85,1.2c.09,0,.18.05.28.06.14.02.27.04.4.09.14.06.25.14.37.22.08.05.16.08.23.15.02.01.03.03.04.05.1.1.17.23.25.35.06.09.14.18.18.28.05.1.06.22.09.33.03.14.07.27.07.41,0,.02.02.04.02.06,0,.11-.05.19-.07.29-.03.13-.03.26-.08.38-.06.14-.15.26-.23.38-.05.07-.08.16-.14.23l-9.15,9.92s-.03.02-.04.03c-.15.15-.32.27-.52.37-.04.02-.08.06-.12.08-.24.1-.5.16-.76.16h-.05l-34.71-.82c-.29,0-.56-.09-.81-.21-.06-.03-.1-.08-.17-.12-.19-.12-.36-.27-.5-.45-.03-.03-.08-.05-.1-.08l-6.98-10.31c-.04-.06-.04-.13-.08-.19-.07-.12-.12-.23-.15-.37-.04-.13-.06-.26-.07-.39,0-.07-.04-.13-.04-.2,0-.05.03-.1.04-.15m-22.4-18.72c.29-.35.7-.59,1.15-.67l13.49-2.54c.58-.12,1.18.05,1.63.43.45.38.71.94.7,1.53l-.14,13.71c0,.45-.17.89-.46,1.24l-8.02,9.6,12.58,10.57c.45.38.71.94.71,1.53l-.15,13.77c0,.45-.16.89-.45,1.24l-9.87,11.79c-.33.4-.81.65-1.33.69-.06,0-.12,0-.18,0-.45,0-.91-.16-1.26-.46l-34.15-28.59c-.83-.7-.94-1.94-.25-2.77l26-31.07Zm47.65,131.85c-.49-.54-.63-1.3-.38-1.98.24-.68.85-1.17,1.55-1.28,0,0,.58-.09,1.46-.09,1.67,0,4.81.34,6.98,2.61,1.59,1.68,2.35,4.01,2.21,6.92,0,.1-.17,1.96-.27,4.73,5.46.54,20.57,3.48,28.79,19.34.36.7.27,1.55-.24,2.16-.5.61-1.33.85-2.08.62-.02,0-2.13-.63-5.24-.63s-6.15.61-8.95,1.82c-1.85.78-3.82,1.18-5.87,1.18-3.36,0-6.39-1.05-8.62-2.13.76,1.94,2.24,4.86,5.12,9.09.36.36.58.85.58,1.4,0,1.09-.88,1.97-1.96,1.97h-.04c-.24,0-.48-.04-.71-.13-.86-.33-21.11-8.31-19.76-25.2.02-.29.57-7.62,7.15-14.8.37-.56,2.13-3.55.29-5.6m-4.12,67.33c-3.42-2.77-7.2-7.54-8.91-15.55-2.21.58-4.5,1.35-6.87,2.37-.99.43-2.15-.03-2.58-1.03-.43-1,.03-2.16,1.03-2.59,2.78-1.2,5.38-2.07,7.79-2.68-.27-2.48-.37-5.21-.22-8.24.05-1.09.96-1.94,2.06-1.87,1.08.05,1.92.98,1.87,2.06-.12,2.58-.04,4.99.19,7.27,8.09-1.21,13.89.66,17.68,2.89,6.5,3.83,10.57,10.64,11.44,19.2.02.12-.03.24-.03.36,0,.09,0,.17-.03.25-.03.14-.08.27-.14.4-.05.12-.11.23-.18.34-.06.08-.12.14-.18.21-.12.13-.26.24-.41.34-.04.03-.09.04-.14.07-.12.06-.23.15-.37.18-2.56.67-5.07,1.01-7.49,1.01-5.46,0-10.45-1.69-14.51-4.98m3.41,17.39s-1.01,4.39-5.71,7.53c-3.54,2.41-19.63,8.39-21.45,9.07-.21.08-.45.12-.68.12-.28,0-.56-.06-.83-.18-.48-.23-.85-.63-1.02-1.13-.65-1.83-6.34-18.02-6.79-22.28-.57-5.64,2.13-9.21,2.24-9.36,2.08-3.4,5.51-5.44,9.31-5.44,2.99,0,5.81,1.3,7.75,3.56,1.2,1.41,2,3.1,2.35,4.96,1.57-.9,3.3-1.38,5.06-1.38,3.29,0,6.43,1.64,8.4,4.39,2.07,2.88,2.58,6.57,1.38,10.14m-6.57-76.57c-1.54,2-8.79,7.92-10.23,9.08-.35.29-.79.44-1.24.44-.08,0-.14,0-.22-.01-.52-.06-1-.32-1.32-.74-1.14-1.45-6.91-8.82-7.96-11.09-1.49-3.25-.65-5.9-.55-6.19.72-3.25,3.46-5.58,6.76-5.58,1.91,0,3.97.83,5.37,2.62,1.18-.99,2.64-1.53,4.25-1.53,3.45,0,7.02,2.73,7.02,7.29.03.09.27,2.86-1.89,5.69m-13.98-19.68c-.15.78-.77,1.39-1.54,1.54-.06,0-6.08,1.28-10.36,6.7-3.19,4.03-7.91,5.13-11.18,5.37,1.49,1.17,3.88,2.73,7.65,4.64.78.39,1.2,1.24,1.05,2.09-.15.85-.83,1.51-1.69,1.61-.06,0-1.54.19-3.77.19-6.47,0-18.01-1.5-22.61-11.57-.11-.23-2.87-6.19-.84-14.56.04-.61.06-3.46-2.1-4.22-.68-.24-1.18-.85-1.29-1.57-.1-.72.2-1.44.78-1.87.27-.2,2.67-1.91,5.64-1.91,2.09,0,5.01.85,7.03,4.9.04.08.67,1.49,1.74,3.56,2.41-.97,7.03-2.46,12.76-2.46,6.44,0,12.46,1.85,17.91,5.51.66.45.98,1.24.83,2.02m-44.62-55.94c.91-2.74,3.47-4.58,6.39-4.58.72,0,1.45.12,2.15.35,3.52,1.18,5.41,5.01,4.24,8.54-.93,2.75-3.51,4.59-6.4,4.59-.73,0-1.45-.12-2.14-.35-3.51-1.18-5.41-5.01-4.23-8.55m-23.51-56.54c2.91-3.78,8.04-8.02,16.76-10.05-.68-2.45-1.6-4.97-2.8-7.59-.45-.99-.02-2.16.97-2.61.99-.45,2.16-.02,2.61.97,1.39,3.04,2.4,5.86,3.12,8.5,2.71-.37,5.69-.56,9.02-.48,1.09.03,1.95.93,1.92,2.01-.03,1.09-.96,1.91-2.02,1.92-2.87-.07-5.55.08-8.06.41,1.56,8.79-.32,15.14-2.63,19.31-3.95,7.12-11.2,11.69-20.41,12.87-.09,0-.17.01-.26.01-.59,0-1.11-.29-1.48-.72-.2-.22-.38-.48-.48-.79-2.57-8.9-1.25-17.35,3.72-23.78m-14.97,50.53c-.07-.26-1.58-6.97,2.35-15.15.16-.61.85-3.62-1.25-4.9-.61-.37-.98-1.06-.95-1.78.04-.72.47-1.37,1.13-1.68.21-.1,2.13-.98,4.48-.98s6.26.86,7.73,6.59c.02.09.36,1.72,1.01,4.11,1.54-.29,3.88-.62,6.72-.62,6.51,0,15.97,1.73,24.04,10,.55.57.72,1.41.41,2.14-.31.73-1.02,1.2-1.82,1.2-.06,0-6.53.1-12.17,4.86-2.67,2.26-6.02,3.4-9.95,3.4-1.03,0-2-.09-2.89-.2,1.22,1.49,3.29,3.59,6.78,6.37.61.33,1.02.98,1.02,1.72,0,1.09-.84,1.99-1.99,1.97h-.03s-.09,0-.13,0c-.86-.06-21.08-1.61-24.49-17.04m25.12,64.67h0c-1.35,0-2.71-.29-4-.83-.03.08-.06.17-.11.25-.67.93-1.97,1.22-2.93.56-.94-.66-1.18-1.94-.55-2.89.04-.06.1-.11.15-.16,0,0-.02-.01-.03-.02-.08-.07-.15-.15-.2-.23l-4.65-6.12-11.09,14.05s.06.05.09.08c.71.89.52,2.19-.42,2.87-.92.68-2.23.51-2.91-.44-.02-.02-.03-.05-.04-.07-1.45.73-3,1.15-4.57,1.15-2.31,0-4.46-.84-6.06-2.35-.7-.67-1.32-1.53-1.84-2.58-1.18-2.47-1.05-5.41.14-8.01-.03-.02-.08-.03-.11-.06-.96-.67-1.22-1.95-.55-2.93.62-.9,1.91-1.15,2.86-.53.06.05.11.11.17.17.64-.61,1.3-1.19,1.96-1.77.44-.38.88-.76,1.32-1.17.78-.72,1.59-1.42,2.4-2.14l1.41-1.23c1.35-1.15,2.65-2.27,3.93-3.41l2.43-2.13-.65-.44c-.96-.65-1.9-1.3-2.86-1.93l-.5-.34c-.84-.58-1.69-1.17-2.49-1.89-.08.08-.14.16-.23.24-.91.65-2.24.48-2.89-.45-.68-.91-.5-2.22.41-2.9.05-.05.13-.07.19-.11-1.69-3.37-1.2-7.8,1.31-10.46,1.03-1.07,2.34-1.73,3.03-2.04,2.01-.81,4.39-.82,6.61-.13.27.09.49.23.73.34.03-.05.04-.1.08-.14.63-.9,1.92-1.18,2.88-.53.97.65,1.2,1.96.56,2.92-.03.04-.07.06-.1.1.66.67,1.24,1.36,1.67,1.98.99,1.37,2.05,2.74,3.11,4.1.32-.48.64-.96.97-1.45l1.36-2.08c.66-1.02,1.37-2.1,2.21-3.1-.05-.06-.13-.12-.17-.19-.72-.9-.5-2.22.42-2.89.91-.7,2.23-.55,2.91.43.02.02.02.03.03.05.13-.07.22-.16.36-.23,1.17-.55,2.52-.84,3.89-.84,2.43,0,4.74.88,6.31,2.43.78.73,1.53,1.82,2.02,2.98.68,1.52.67,3.4.63,4.14-.07,1.13-.37,2.24-.86,3.32.03.02.08.03.11.05.96.66,1.18,1.95.56,2.94-.68.92-1.96,1.15-2.92.53-.06-.05-.11-.11-.17-.16-1.38,1.37-2.94,2.49-4.46,3.56-.51.36-1.03.73-1.54,1.1-.12.08-.24.17-.36.26l6.09,4.12c.09.06.18.14.26.21,0,0,0,0,0,.01.02-.01.03-.03.04-.04.91-.7,2.2-.49,2.89.42.68.93.49,2.22-.4,2.93-.04.03-.09.04-.14.07.62,1.33.97,2.75,1,4.18.04,2.38-.79,4.58-2.36,6.19-1.61,1.7-3.88,2.65-6.36,2.65m9.39,62.66s-.05-.06-.07-.09c-.82-1.16-.96-2.63-.38-3.89.5-1.13,1.49-1.95,2.67-2.2l12.01-2.97c.15-.04.29-.06.44-.08.13-.02.33-.03.46-.03,1.02,0,2.01.39,2.77,1.09.09.08.16.16.24.24.79.88,1.11,2.07.91,3.26.85.14,1.68.21,2.49.21.55,0,1.05-.03,1.52-.09l-19.02-18.29c-2.62-.02-5.09-1.03-6.97-2.84-1.98-1.91-3.09-4.48-3.13-7.24-.04-2.74.99-5.32,2.86-7.22,1.95-2.04,4.58-3.16,7.39-3.16,2.65,0,5.17,1.01,7.1,2.86,1.89,1.83,2.98,4.3,3.09,6.86l19.05,18.3c.09-1.19.02-2.6-.32-4.21-.33.09-.68.15-1.04.15-.85,0-1.68-.28-2.36-.78-1.3-.96-1.88-2.56-1.5-4.03l2.76-11.93c.14-.72.56-1.78,1.77-2.56.25-.17.52-.3.81-.39.42-.14.84-.2,1.26-.2.79,0,1.55.23,2.21.68l9.98,6.49c1.23.76,1.94,2.18,1.83,3.65-.05.71-.27,1.36-.66,1.95-.33.5-.78.91-1.31,1.18-.09.06-.23.12-.33.17,1.94,6,4,17.92-5.47,27.51-4.8,5.11-11.19,7.82-18.48,7.82-3.43,0-6.5-.6-8.73-1.21-.12.23-.31.54-.59.85-.09.09-.16.17-.25.24-.43.37-.83.59-1.14.72-.38.17-.79.28-1.21.32-.09,0-.2,0-.29,0-1.21,0-2.35-.55-3.19-1.6l-7.21-9.52Zm-1.29,46.94c-.85,2.57-3.27,4.32-6.01,4.32-.68,0-1.35-.11-2-.32-3.34-1.14-5.12-4.75-3.99-8.06.85-2.57,3.27-4.31,6-4.31.68,0,1.36.11,2.01.33,1.62.54,2.94,1.68,3.69,3.21.74,1.52.85,3.23.3,4.83m4.34,4.16c-2.01-3.74-2.12-7.32-1.83-9.75-.36-.06-.7-.22-.97-.47l-3.94-3.54c-.73-.65-.86-1.73-.33-2.54,3.64-5.54,6.05-7.99,9.79-11.09,7.93-6.58,16.02-7.9,16.37-7.96.73-.11,1.45.19,1.89.77,5.26,7.11,6.73,16.83,7,19.02.07.2.1.41.1.63,0,1.09-.87,1.89-1.98,1.97-.12,0-.27,0-.39-.03-3.42-.65-6.73-1.05-9.82-.96,2.82,2.37,5.64,6.06,5.11,11.15-.64,6.01,1.91,11.42,2.56,12.69.28.34.45.77.45,1.25,0,1.09-.88,1.97-1.96,1.97h-.05c-.14,0-.28-.02-.43-.04-10.97-2.44-18.23-6.83-21.56-13.06m46.1,33.7l-10.42,9.54c-.07.09-.15.19-.25.27-.38.35-.85.52-1.33.52-.53,0-1.06-.21-1.45-.64l-22.63-24.67c-.61-.67-.69-1.64-.2-2.39.48-.75,1.4-1.09,2.24-.82.37.12,8.99,2.87,19.84,7.77,9.1,4.03,13.79,7.22,13.98,7.35.5.34.8.89.85,1.49.04.6-.19,1.19-.63,1.59m17.02-15.65l-10.54,9.72c-.07.06-.14.12-.22.17-.35.28-.79.42-1.21.42-.53,0-1.06-.2-1.45-.63l-22.61-24.64c-.61-.66-.69-1.64-.21-2.39.48-.75,1.4-1.08,2.24-.82.37.12,9.01,2.83,19.87,7.74,9.09,4.05,13.74,7.24,13.93,7.37.49.33.8.88.85,1.47.04.6-.19,1.18-.63,1.59m12.7,8.2c-1.06.27-2.12-.39-2.4-1.42-.25-1.06.38-2.13,1.46-2.39.03,0,.05,0,.08,0-.04-1.06-.03-2.1-.02-3.16l.02-1.02c0-.98,0-1.99.02-3.01l.08-7.67c0-.63,0-1.26,0-1.9-1.26.32-2.51.63-3.76.94l-.24.05c-1.02.26-2.09.51-3.2.63,0,.07,0,.13,0,.19-.09,1.07-1.06,1.89-2.13,1.79s-1.88-1.05-1.79-2.18c0-.02,0-.03.02-.05-3.52-.97-6.33-4.16-6.58-7.64-.09-1.05.08-2.32.48-3.47.7-1.87,2.19-3.59,4.09-4.73.23-.14.48-.24.73-.36-.25-1.04.37-2.1,1.41-2.36,1.06-.26,2.15.38,2.4,1.41v.05c.26-.01.5-.04.76-.04.57,0,1.14.04,1.68.1,1.56.17,3.14.29,4.71.41-.1-.4-.21-.79-.32-1.19l-.72-2.71c-.29-1.05-.58-2.16-.74-3.31-.04,0-.09,0-.13,0-1.08-.11-1.88-1.08-1.77-2.13.08-1.08,1-1.85,2.06-1.81.04-.15.06-.29.1-.44,1.07-3.36,4.27-5.98,7.62-6.24.15-.02.36-.03.57-.03,1.19,0,2.3.32,2.84.51,1.51.49,2.84,1.65,3.35,2.13.78.79,1.39,1.73,1.84,2.79,1.07-.26,2.13.38,2.36,1.42.27,1.03-.36,2.11-1.43,2.39-.03,0-.07,0-.1,0,.1,1.79-.09,3.56-.28,5.27-.07.63-.15,1.27-.2,1.9,0,.09-.02.17-.03.25l6.57-1.63c.1-.03.21-.04.32-.05.02,0,.03,0,.05,0,.1-1.02,1.04-1.82,2.1-1.75,1.08.12,1.88,1.07,1.76,2.16h0c3.59,1.09,6.28,4.04,6.57,7.61.18,2.15-.53,4.28-2.01,6.03-.9,1.06-2.03,1.9-3.31,2.51.02.04.04.09.05.13.28,1.05-.35,2.14-1.42,2.39-1.07.28-2.13-.37-2.4-1.4,0-.04,0-.06,0-.09h-.31l-7.1-.55,2.9,16.47c1.06.11,1.85,1.04,1.75,2.13-.09,1.08-1.02,1.83-2.07,1.77-.33,1.24-.86,2.36-1.6,3.36-1.52,2.06-3.67,3.29-6.06,3.47-.2.02-.34.02-.49.02-.88,0-1.8-.14-2.61-.39-2.47-.74-4.45-2.67-5.53-5.17h-.03Zm48.22,43.18c-.37,3.58-3.36,6.3-6.98,6.3-.24,0-.48,0-.72-.03-3.87-.41-6.68-3.88-6.27-7.73.38-3.82,3.8-6.67,7.72-6.26,3.84.41,6.64,3.87,6.25,7.72m-1.26-14.21c-3.95,3.72-8.34,4.79-11.28,5.05.09.44.03.92-.2,1.32l-2.97,5.34c-.36.64-1.02,1.01-1.72,1.01-.23,0-.46-.04-.68-.13-7.19-2.69-10.54-4.8-14.96-8.22-9.37-7.22-12.85-15.96-12.99-16.33-.27-.67-.13-1.44.35-2,7.37-8.53,19.55-12.58,20.07-12.75.59-.19,1.23-.09,1.74.27.5.35.82.93.84,1.55.15,5.16.85,9.24,1.58,12.17,1.85-3.91,5.31-8.45,11.46-9.15,8.01-.94,14.01-6.37,14.07-6.42.57-.53,1.41-.67,2.13-.35.71.32,1.17,1.02,1.17,1.8,0,12.45-2.88,21.49-8.58,26.85m95.36-26.35s-.66,4.87-5.4,8.79c-3.71,3.01-20.98,11.32-22.94,12.26-.26.12-.55.19-.85.19-.23,0-.45-.03-.67-.12-.5-.17-.9-.55-1.12-1.02-.9-1.96-8.85-19.36-9.74-23.99-.02-.1-.02-.19-.04-.3-.73.43-1.49.83-2.26,1.24.05.24.11.46.15.7.31,2.58-.59,5.57-3.04,7.68,2.3,1.69,3.6,4.27,3.48,7.27-.18,4.44-3.51,8.02-8.1,8.69.03,0-.71.18-1.85.18-1.41,0-3.58-.27-5.92-1.57-3.07-1.71-13.35-11.15-14.51-12.23-.38-.36-.61-.85-.63-1.38-.02-.52.18-1.03.54-1.42.37-.38,1.72-1.81,3.46-3.59-11.99-2.04-20.86-9-25.66-13.74-2.7,1.31-5.96,2.38-9.93,2.93.45,2.44,1.12,4.99,2.05,7.63.36,1.02-.18,2.15-1.2,2.51-.22.07-.44.11-.66.11-.81,0-1.57-.5-1.85-1.32-1.08-3.09-1.82-5.94-2.29-8.59-.68.03-1.31.09-2.01.09-2.13,0-4.4-.13-6.85-.43-1.08-.13-1.84-1.11-1.72-2.19.13-1.08,1.09-1.84,2.18-1.71,2.78.33,5.41.44,7.89.35-.72-8.73,1.7-14.77,4.35-18.64,1.92-2.8,4.41-5.07,7.32-6.81l.57-9.11-11.92,6.23c-.29.15-.6.22-.91.22-.2,0-.4-.03-.59-.09-.5-.16-.91-.5-1.15-.97l-19.46-37.29c-.21-.41-.28-.87-.19-1.31l2.94-13.94c.12-.58.5-1.07,1.02-1.34.52-.27,1.14-.3,1.68-.06l13.08,5.61c.42.18.76.5.97.9l6.04,11.55,10.77-5.58.33-5.23c-2.74.65-4.96,1.15-5.53,1.28-.14.03-.28.04-.43.04-.38,0-.74-.11-1.07-.31-.44-.29-.75-.73-.86-1.25-.33-1.61-3.3-15.85-3.2-19.46.18-4.92,2.9-7.68,3.02-7.79,1.89-2.34,4.59-3.71,7.49-3.71.86,0,1.71.14,2.52.38l.31-4.81c-2.43,1.13-5.1,1.75-7.92,1.75-2.1,0-4.27-.31-6.49-.95-.1-.03-.19-.1-.29-.15-.1-.05-.19-.09-.28-.15-.09-.06-.17-.14-.25-.22-.12-.11-.22-.22-.31-.36-.03-.05-.05-.1-.08-.15-.1-.19-.16-.38-.2-.6,0-.02,0-.03,0-.05-.02-.16-.05-.31-.04-.48.87-6.89,4.29-12.33,9.64-15.3,1.86-1.04,4.33-1.96,7.41-2.28l.44-6.96-15.07,1.7c-.64,4.6-1.59,7.58-3.13,11.32-4.03,9.86-10.76,14.95-11.04,15.17-.34.26-.76.39-1.18.39-.28,0-.57-.06-.84-.19-9.13-4.33-15.56-13.88-15.83-14.28-.35-.52-.43-1.17-.22-1.75.21-.59.68-1.03,1.27-1.22,4.09-1.27,7.27-2.73,9.58-3.98-1.93-.39-4.03-1.11-5.9-2.37l-32.13,3.62s-13.38-9.84-17.6-26.51c-.07.37-.2.73-.46,1.02-.35.38-8.62,9.21-18.85,12.21-.19.05-.37.08-.55.08-.52,0-1.04-.21-1.42-.6-.25-.27-6.38-6.7-8.92-17.6-1.2-5.15-1.69-8.87-1.19-16.07.07-.97.84-1.75,1.81-1.82l5.75-.44c.43-.03.86.08,1.21.3,2.08-3.57,6.94-9.17,16.97-9.17,3.01,0,6.28.53,9.79,1.53,2.06-3.75,4.4-6.9,6.57-9.39-.97-1.75-1.23-3.14-1.25-3.24-.92-3.33-.36-6.72,1.64-9.34,1.85-2.42,4.76-3.87,7.81-3.87,1.86,0,3.66.52,5.28,1.51.37-1.56,1.1-2.97,2.13-4.14,1.85-2.1,4.57-3.31,7.45-3.31,3.88,0,7.36,2.15,9.32,5.75.02,0,2.41,3.56,1.59,8.9-.15.89-.57,2.34-1.14,4.05l14.3,1.61-4.22-6.4c-.26-.38-.37-.83-.32-1.28l1.33-12.91c.06-.59.38-1.11.87-1.44.49-.32,1.1-.41,1.67-.24l12.4,3.83c.43.14.81.42,1.06.8l13.62,20.62,7.81.88-2.98-27.46c-.08.03-.14.06-.22.1-6.47,2.89-12.4,3.33-15.35,3.33-1.5,0-2.4-.11-2.5-.12-.72-.09-1.33-.57-1.59-1.25-3.48-9.14-1.61-20.12-1.53-20.58.11-.61.5-1.14,1.05-1.42.56-.28,1.21-.28,1.77,0,3.61,1.8,6.73,2.9,9.15,3.57-2.07-3.04-3.76-7.35-1.88-12.09,2.55-6.41.91-13.1.9-13.16-.2-.76.08-1.55.69-2.03.61-.48,1.46-.55,2.14-.18.98.53,1.89,1.07,2.78,1.61l-.85-7.74s13.84-18.91,36.55-18.91c9.21,0,16.93,3.12,22.89,6.82l5.51-26.03c.09-.45.34-.84.7-1.13l10.61-8.47c.46-.37,1.07-.51,1.64-.38.57.12,1.07.5,1.34,1.02l6.27,12.06c.2.41.27.87.17,1.31l-2.58,12.11,15.91,3.39c.58.12,1.07.5,1.34,1.02l6.26,12.11c.21.41.27.87.18,1.31l-3.13,14.9c-.11.51-.42.96-.85,1.25-.32.21-.7.32-1.08.32-.14,0-.27-.01-.41-.04l-28.93-6.14-2.13,19.62c0,.16-.03.31-.05.47l-2.47,22.73,7.35-2.17c.38-.12.78-.18,1.17-.18.84,0,1.65.27,2.31.76,1.07.76,1.67,2.02,1.61,3.37v.12s-.02.12-.02.12l-1.36,11.47c-.13,1.44-1.02,2.68-2.32,3.27-.51.23-1.06.35-1.6.35-.44,0-.87-.08-1.28-.22-.32-.11-.58-.24-.76-.36-1.73,1.76-4.27,3.97-7.51,5.75l-.63,5.83,12.68-1.43,13.71-17.42-7.55-5.95c-.85-.67-1-1.91-.32-2.76l5.13-6.53c.32-.41.79-.68,1.31-.74.52-.07,1.04.09,1.45.41l7.55,5.96,5.94-7.56c.32-.41.8-.68,1.32-.74.52-.06,1.04.09,1.45.41l6.58,5.19c.85.67,1,1.91.32,2.76l-5.94,7.55,7.53,5.92c.85.67,1,1.91.33,2.76l-5.12,6.51c-.15.19-.34.35-.55.47l16.67-1.88c3.63-4.49,9.82-7.76,18.52-9.69.76-.17,1.54.12,2.01.75.47.62.51,1.47.13,2.14-.03.05-2.89,5.17-2.59,11.13,3.66,4.02,8.08,10.1,10.66,17.84.4-.63.76-1.16,1.06-1.52,3.37-4.11,7.56-4.69,7.73-4.71.75-.18,1.69-.3,2.6-.3,4.46,0,8.2,2.65,9.53,6.74.95,2.91.47,5.93-1.21,8.46,3.33.98,5.81,3.52,6.62,7.01.91,3.91-.51,9.01-5.74,11.59-.07.06-2.42,1.49-6.07,1.49-.9,0-1.81-.09-2.71-.26-2.01-.41-6.81-2.37-11.23-4.29-4.53,15.98-17.32,25.36-17.32,25.36l-74.47-8.4,4.19,66.56,18.83-.55c.13,0,.25.04.37.06.1.02.2.01.3.05.2.06.38.17.54.29.03.03.08.04.11.06,0,0,0,.02.02.02.14.12.24.26.34.42.04.07.11.13.15.21.05.1.07.22.09.33.04.14.09.27.1.41,0,.02,0,.04,0,.06,0,.1-.04.18-.04.27-.02.14-.03.28-.08.42-.04.14-.12.25-.2.37-.05.08-.07.17-.14.25l-9.76,11.77s-.03.02-.04.04c-.17.2-.38.36-.62.48,0,0-.02.02-.03.02-.23.11-.49.17-.76.18l-8.22.24,2.98,47.39c2.23.47,4.29,1.6,5.86,3.28,1.33,1.41,2.26,3.16,2.78,5.11,1.95-1.47,4.22-2.25,6.63-2.25,3.41,0,6.75,1.65,8.93,4.39,2.31,2.91,3.07,6.65,2.16,10.51m57.3-126.69c.85.64,1.02,1.84.38,2.69-.62.78-1.79.95-2.63.36,0,.01-.02.03-.03.04-.08.07-.15.14-.24.2l-5.53,3.77,12.05,10.52c.83-.49,1.94-.28,2.51.55.52.84.34,1.93-.46,2.53.61,1.35.94,2.77.89,4.19-.08,2.21-.97,4.21-2.52,5.64-.62.64-1.58,1.25-2.57,1.62-.88.37-1.9.57-2.95.57-1.49,0-2.97-.43-4.33-1.15-.61.81-1.79.99-2.6.31-.84-.59-.97-1.78-.34-2.6-.49-.58-.96-1.15-1.4-1.72-.37-.46-.72-.91-1.1-1.36-.71-.88-1.39-1.75-2.07-2.62l-.82-1.04c-.69-.85-1.36-1.71-2.03-2.58l-1.72-2.19c-.27-.34-.53-.68-.8-1.02-.74.99-1.46,1.93-2.18,2.88l-.14.18c-.61.82-1.26,1.65-2.01,2.42.02.02.05.04.07.07.56.85.32,2.03-.52,2.65-.9.56-2.04.32-2.6-.52-1.09.48-2.3.74-3.55.74-2.39,0-4.61-.9-6.1-2.49-.91-.99-1.48-2.19-1.73-2.82-.67-2.02-.57-4.26.23-6.25.09-.23.22-.42.32-.63-.76-.66-.97-1.77-.34-2.55.61-.82,1.76-1,2.61-.41.63-.57,1.29-1.08,1.88-1.46,1.24-.8,2.46-1.64,3.67-2.48-.12-.08-.24-.17-.36-.26-.65-.47-1.3-.94-1.94-1.43l-.65-.47c-.88-.63-1.8-1.31-2.65-2.1-.02,0-.03.02-.03.03-.9.57-2.06.32-2.65-.5-.54-.82-.32-1.96.45-2.54-.07-.15-.17-.27-.23-.43-1.23-3.18-.41-7.09,1.95-9.31.68-.68,1.77-1.34,2.86-1.73,1.18-.38,2.6-.52,3.82-.41,1.08.11,2.12.44,3.12.98.64-.79,1.77-.94,2.55-.34.85.68,1,1.86.37,2.67,0,0,0,0,0,.01,1.16,1.35,2.1,2.78,2.99,4.18.32.5.64,1.01.97,1.5l.08.12,3.85-5.08c.06-.08.13-.16.21-.23.02-.02.05-.04.08-.06-.51-.85-.31-1.95.58-2.51.84-.57,1.97-.35,2.54.47,1.17-.49,2.41-.75,3.66-.75,2.3,0,4.4.88,5.91,2.48,2.41,2.54,2.76,6.37,1.2,9.65,0,0,.03,0,.03.01m-79-5.24c-1.78,1.47-3.54,3.15-5.27,5.09-.39.44-.93.66-1.47.66-.46,0-.93-.17-1.31-.5-.81-.72-.88-1.97-.15-2.78,2.02-2.27,4.02-4.17,5.98-5.75-1.32-2.15-2.56-4.6-3.7-7.43-.41-1.01.07-2.16,1.08-2.56,1.01-.41,2.15.07,2.56,1.08.98,2.41,2.08,4.59,3.27,6.57,6.87-4.54,12.94-5.29,17.34-4.86,7.56.73,14.17,5.23,18.59,12.66.06.1.08.22.11.32.04.09.08.18.1.27.03.12.03.24.04.37,0,.15,0,.29-.03.44-.02.07-.03.13-.06.2-.06.19-.14.37-.26.54-.02.03-.03.04-.05.07-.09.12-.16.25-.29.35-5.04,4.19-10.71,6.37-16.37,6.37-1.8,0-3.59-.22-5.38-.67-4.28-1.08-9.77-3.82-14.73-10.42m11.74,41.12c-.36.51-.93.82-1.55.83l-13.39.39h-.06s-.04,0-.07,0c-1.06.06-2-.82-2.02-1.91l-.63-21.97c-.03-.77.41-1.49,1.11-1.83.69-.33,1.52-.23,2.12.26.21.18,5.36,4.53,9.77,12.18,3.68,6.26,4.94,10.14,4.99,10.3.2.59.09,1.23-.26,1.74m3.29-12.81l6.95-12.05c.3-.51.8-.86,1.38-.96.59-.09,1.18.07,1.62.46l10.45,9.18c.34.3.56.71.64,1.16l2.07,12.5,16.43-2.69c.58-.09,1.18.08,1.61.47l10.47,9.22c.34.3.56.71.64,1.16l2.54,15.35c.09.52-.03,1.05-.34,1.47-.3.42-.76.71-1.28.79l-44.5,7.33c-.1.02-.21.03-.31.03-.41,0-.81-.13-1.14-.37-.43-.3-.72-.76-.8-1.28l-6.66-40.47c-.07-.45.02-.91.24-1.3m.44,72.53c.89,1.94,2.59,4.85,5.85,9.05.41.36.67.89.67,1.47,0,1.09-.83,1.95-1.99,1.97h-.03c-.2,0-.39-.03-.59-.1-.9-.27-21.99-7.1-21.7-24.35,0-.29.09-7.78,6.34-15.5.32-.59,1.96-3.78-.08-5.77-.51-.5-.71-1.26-.51-1.95.2-.7.77-1.23,1.49-1.38.1-.02,1.02-.21,2.3-.21,5.6,0,9.01,3.41,9.1,9.11,0,.1-.06,2.03.03,4.88,5.26.22,21.19,2.23,30.55,17.82.4.68.37,1.54-.1,2.18-.47.64-1.27.93-2.05.75,0,0-1.54-.35-3.87-.35-2.58,0-6.49.43-10.52,2.47-2.13,1.08-4.46,1.61-6.94,1.61-3.04,0-5.83-.81-7.94-1.69m37.33,61.4c-.22.17-6.72,4.81-17.33,4.27-.73.09-4.63.71-5.08,3.83-.1.72-.59,1.33-1.27,1.57-.22.09-.44.12-.66.12-.48,0-.96-.17-1.32-.5-.16-.14-3.94-3.61-3.74-8.15.12-2.7,1.56-5.1,4.28-7.14.09-.06,1.81-1.24,4.27-3.13-3.28-4.82-11.55-19.64-3.87-37.67.31-.72,1.07-1.14,1.82-1.19.79,0,1.5.49,1.81,1.21.03.07,3.09,7.19,10.94,11.23,6.04,3.08,8.4,9.02,9.32,13.14,1.16-2,2.72-5.48,4.39-11.44.23-.82.98-1.41,1.83-1.43.9.03,1.64.52,1.92,1.34.33.95,7.73,23.43-7.32,33.97m33.26-52c-1.67,1.87-4.05,2.9-6.68,2.9-1.29,0-2.56-.25-3.77-.72-.03.09-.03.19-.08.27-.67,1-1.96,1.31-2.98.67-.96-.64-1.27-1.92-.66-2.93.05-.07.11-.12.16-.18,0,0,0,0,0,0-.08-.07-.15-.14-.21-.22l-4.97-6.08-10.78,14.68s.05.05.08.08c.74.88.62,2.2-.31,2.97-.95.7-2.28.55-2.99-.34-.03-.03-.03-.07-.06-.1-1.55.85-3.23,1.32-4.93,1.32-2.22,0-4.31-.79-5.89-2.2-.74-.63-1.47-1.59-1.98-2.59-1.24-2.41-1.19-5.39-.09-8.05-.05-.03-.11-.05-.17-.09-.97-.61-1.27-1.95-.66-2.94.63-.99,1.92-1.26,2.9-.65.09.04.14.1.21.16.68-.71,1.37-1.34,2.06-1.97.4-.38.79-.74,1.19-1.11.71-.69,1.46-1.38,2.21-2.08.52-.48,1.04-.96,1.54-1.45.83-.79,1.67-1.57,2.53-2.36l1.4-1.3c.54-.52,1.12-1.07,1.7-1.62l.65-.61c-1.22-.77-2.45-1.54-3.68-2.31l-.32-.2c-.93-.6-1.88-1.21-2.77-1.96-.08.08-.14.17-.22.23-.91.74-2.27.6-3-.31-.73-.92-.57-2.24.37-2.99.05-.05.12-.08.18-.12-1.84-3.35-1.49-7.85,1.03-10.65.98-1.17,2.42-1.91,2.99-2.17,1.98-.87,4.49-.96,6.7-.3.24.06.47.18.71.27.03-.04.03-.09.06-.13.67-.99,1.95-1.31,2.93-.65,1.01.62,1.31,1.9.68,2.94-.04.05-.08.09-.12.13.6.56,1.18,1.18,1.74,1.9,1.09,1.4,2.22,2.77,3.35,4.14.18-.29.35-.58.53-.86.43-.72.88-1.43,1.33-2.15l.43-.73c.63-1.05,1.31-2.16,2.12-3.19-.07-.07-.15-.12-.2-.21-.75-.9-.59-2.25.32-2.97.91-.71,2.25-.58,2.99.33.03.03.03.07.06.1.14-.08.24-.18.38-.26,3.17-1.6,7.76-1.06,10.35,1.27.79.67,1.61,1.79,2.14,2.96.52,1.25.8,2.78.78,4.15-.02,1.15-.29,2.31-.77,3.42.04.02.09.03.15.06,1.01.63,1.28,1.94.67,2.94-.64.99-1.91,1.27-2.94.64-.08-.05-.14-.12-.21-.18-1.29,1.36-2.75,2.5-4.17,3.59-.58.44-1.15.88-1.71,1.34l-.42.34,6.33,3.99c.1.06.18.13.27.2,0,0,0,0,.02.01.02-.02.04-.04.06-.06.9-.72,2.24-.59,3,.31.73.94.57,2.25-.33,2.98-.05.04-.11.07-.16.1.56,1.09.95,2.26,1.1,3.47.34,2.68-.41,5.21-2.12,7.11m1.66-53.77c-1.2,1.97-3.32,3.16-5.67,3.16-1.24,0-2.46-.35-3.51-1-1.53-.93-2.61-2.41-3.03-4.16-.41-1.73-.12-3.52.83-5.03,1.21-1.99,3.34-3.18,5.69-3.18,1.25,0,2.47.35,3.53,1.01,1.52.93,2.59,2.4,3,4.13.41,1.74.11,3.54-.84,5.07m36.29-3.59c-.08.61-.44,1.16-.99,1.46-.54.3-1.19.33-1.76.08-4.22-1.88-7.8-2.93-10.5-3.52,2.47,3.17,4.73,7.83,2.89,13.19-2.13,6.17-.76,12.52-.37,14.01.14.27.21.58.21.9,0,1.08-.88,1.96-1.96,1.96h-.05c-.28,0-.57-.06-.84-.19-10.89-5.2-17.41-11.55-19.39-18.85-1.21-4.47-.42-8.29.49-10.74-.39-.13-.74-.37-.99-.72l-3.3-4.66c-.56-.8-.46-1.89.25-2.56,5.11-4.87,8.26-6.87,12.96-9.26,10.12-5.1,19.05-4.38,19.05-4.38.72.05,1.36.5,1.65,1.17,4.25,9.65,2.73,21.61,2.66,22.11m7.95-38.79c-6.69,9.82-16.65,11.88-23.84,11.88-1.7,0-3.24-.12-4.54-.27l-.03.1c-.16.92-.61,1.49-.81,1.75-.38.47-.86.86-1.44,1.15-.09.04-.17.08-.27.12-.46.18-.95.28-1.44.28-1.12,0-2.16-.47-2.92-1.3l-9.1-9.32c-.96-.95-1.37-2.34-1.09-3.63.27-1.28,1.14-2.34,2.35-2.85l12.22-5.47c.53-.26,1.11-.39,1.68-.39.96,0,1.9.36,2.62,1.02,1,.87,1.51,2.24,1.32,3.59,0,.01,0,.03,0,.04.22,0,.44.01.66.01,2.01,0,3.68-.32,5.01-.77l-24.34-17c-.59.1-1.18.15-1.78.15-2.19,0-4.32-.67-6.13-1.93-2.41-1.67-4.01-4.18-4.52-7.05-.5-2.87.14-5.75,1.8-8.11,2.03-2.92,5.38-4.66,8.95-4.66,2.22,0,4.35.67,6.17,1.92,2.36,1.64,3.93,4.06,4.46,6.82l24.33,16.95c-.05-1.5-.37-3.3-1.18-5.35-.55.27-1.15.41-1.77.41-.45,0-.9-.08-1.34-.23-.31-.11-.62-.27-.9-.46-1.14-.82-1.77-2.16-1.68-3.52l.61-13.49c0-.25.05-.49.11-.73.34-1.31,1.09-2.04,1.76-2.45.63-.41,1.39-.64,2.15-.64.44,0,.86.07,1.28.21.14.05.28.11.43.17l11.68,5.69c1.31.62,2.19,1.9,2.3,3.3.08.94-.15,1.83-.65,2.54-.27.43-.62.79-1.03,1.07,3.06,6.06,7.38,18.61-1.09,30.46m16.54-34.52c-.09.68-.56,1.26-1.22,1.46-.17.05-.34.08-.51.08-.5,0-.97-.21-1.32-.59-.17-.19-4.21-4.79-7.09-12.28-2.47-6.13-3.06-9.76-3.09-9.91-.08-.54.09-1.09.47-1.49.38-.4.91-.59,1.47-.53l12.09,1.46c.1.01.2.03.3.06.86.2,1.44,1.02,1.33,1.92l-2.42,19.82Z"/>
      <path class="cls-3" d="m389.55,219.49c.08,0,.12-.06.15-.15.09-.05.1-.2.09-.33,0-.15-.14-.33-.3-.41l-11.72-5.71c-.05-.02-.11-.03-.17-.03-.1,0-.2.03-.28.09-.15.08-.2.22-.25.38l-.61,13.54c-.02.16.09.37.24.48.07.02.13.04.19.04.11,0,.22-.04.32-.11l2.84-1.85c5.04,8.46,3,14.68,2.27,16.39l-30.12-20.97c-.04-2.27-1.12-4.49-3.16-5.91-1.26-.88-2.72-1.3-4.18-1.3-2.33,0-4.63,1.1-6.08,3.16-2.35,3.33-1.53,7.96,1.84,10.29,1.25.87,2.7,1.31,4.14,1.31.84,0,1.66-.14,2.46-.44l30.1,21.03c-1.12,1.07-4.8,4.03-11.46,4.03-1.44,0-3.02-.14-4.76-.47l.64-3.58c.03-.18-.05-.38-.17-.47-.09-.1-.2-.15-.31-.15-.06,0-.12.02-.19.06l-12.33,5.52c-.15.06-.27.2-.31.36-.03.15.02.32.14.44l9.2,9.42c.1.12.22.18.35.18.05,0,.1,0,.14-.03.1-.05.2-.12.27-.2.05-.07.09-.1.1-.2l.74-3.48c1.02.24,3.76.79,7.27.79,6.31,0,15.1-1.78,20.94-10.36,9.38-13.11.81-27.35-.76-29.76l2.71-1.59Zm-42.94,2.77c-.71.98-2.09,1.28-3.14.55-1-.72-1.22-2.08-.52-3.11.68-1.04,2.1-1.27,3.07-.58,1.05.7,1.29,2.09.59,3.14"/>
      <path class="cls-3" d="m400.16,205.67c1.25,3.23,2.72,5.88,3.95,7.79l1.68-13.71-7.98-.96c.43,1.58,1.16,3.91,2.35,6.87"/>
      <path class="cls-3" d="m342.04,289.32c-.45-.28-.95-.43-1.46-.43-.97,0-1.84.49-2.35,1.32-.39.63-.51,1.36-.34,2.06.17.72.61,1.33,1.25,1.72,1.29.79,3.01.36,3.77-.87.41-.65.53-1.4.37-2.11-.17-.7-.61-1.31-1.24-1.69"/>
      <path class="cls-3" d="m324.18,299.52l-2.11-12.72-9.24-8.14-17.45,2.85c-1.08.17-2.08-.55-2.26-1.62l-2.26-13.74-8.12-7.13-5.4,9.36,6.22,37.83,40.62-6.69Zm-14.92-11.89c1.27-.2,2.48.65,2.69,1.92l.59,3.56-4.63.72-.58-3.53c-.21-1.25.66-2.46,1.93-2.68m-11.58,1.9c1.27-.19,2.47.69,2.7,1.94l.55,3.52-4.61.74-.61-3.47c-.17-1.32.68-2.52,1.96-2.74m-15.04-16.98c-.21-1.24.65-2.48,1.93-2.65,1.25-.24,2.49.65,2.71,1.9l.56,3.49-4.64.78-.56-3.53Z"/>
      <path class="cls-3" d="m291.13,241.45c-3.72-5.46-8.85-8.77-14.64-9.32-4.87-.46-9.88.99-14.79,4.23,3.54,4.71,7.78,7.77,12.54,8.96,5.62,1.41,11.55.02,16.89-3.87"/>
      <path class="cls-3" d="m418.49,239.74c-.29.44-.74.74-1.26.84-.51.09-1.04,0-1.48-.29l-10.17-6.79-3.5,5.29,10.17,6.8c.44.29.73.74.84,1.25.1.51,0,1.04-.29,1.48l-6.78,10.14,5.19,3.47,6.79-10.19c.28-.43.73-.73,1.25-.84.13-.03.26-.04.38-.04.38,0,.77.11,1.09.33l4.35,2.9c.4-2.28.75-4.58,1.08-6.89l-1.92-1.28c-.91-.6-1.15-1.82-.56-2.72l3.59-5.41c.2-2.15.37-4.32.5-6.49l-2.53-1.68-6.76,10.14Z"/>
      <path class="cls-3" d="m421.1,211.34c2.39-4.06,3.93-7.23,4.78-9.15l-7.95-.97-2.31,18.94c1.59-2.4,3.51-5.42,5.47-8.82"/>
      <path class="cls-3" d="m176.2,243.58c4.47.9,8.62.18,11.93-2.06l.65-10.3c-1.9.26-3.65.84-5.25,1.72-3.77,2.1-6.33,5.84-7.33,10.64"/>
      <path class="cls-3" d="m256.63,262.05l.44,15.02,8.74-.26c-.73-1.65-1.9-4.06-3.66-7.05-1.86-3.24-3.88-5.84-5.51-7.72"/>
      <path class="cls-3" d="m290.8,159.07c.27-.03.53-.12.76-.26l-1.58.18c.26.08.54.12.82.09"/>
      <polygon class="cls-3" points="184.26 308.31 183.96 307.72 183.91 308.49 184.26 308.31"/>
      <path class="cls-3" d="m97.01,200.6c.11.53.26,1.04.39,1.56.03-.22.07-.45.03-.68-.07-.33-.22-.62-.43-.88"/>
    </g>
  </g>
</svg>