<?xml version="1.0" encoding="utf-8"?>
<!-- Generator: Adobe Illustrator 27.1.1, SVG Export Plug-In . SVG Version: 6.00 Build 0)  -->
<svg version="1.1" id="Layer_1" xmlns="http://www.w3.org/2000/svg" xmlns:xlink="http://www.w3.org/1999/xlink" x="0px" y="0px"
	 viewBox="0 0 425.2 425.2" style="enable-background:new 0 0 425.2 425.2;" xml:space="preserve">
<style type="text/css">
	.st0{fill:#CAC7B8;}
	.st1{clip-path:url(#SVGID_00000037668578555554266490000001476233473125842602_);}
	.st2{clip-path:url(#SVGID_00000133492191948688799930000016393764570832424327_);}
	.st3{fill:#010101;}
	.st4{font-family:'Poppins-Regular';}
	.st5{font-size:61.89px;}
</style>
<circle class="st0" cx="212.6" cy="212.6" r="212.6"/>
<g>
	<defs>
		<circle id="SVGID_1_" cx="212.6" cy="212.6" r="184"/>
	</defs>
	<clipPath id="SVGID_00000144337204146717991880000015252771919768804286_">
		<use xlink:href="#SVGID_1_"  style="overflow:visible;"/>
	</clipPath>
	<g style="clip-path:url(#SVGID_00000144337204146717991880000015252771919768804286_);">
		<g>
			<defs>
				<rect id="SVGID_00000183223301275768223450000003693162849091783311_" x="101.9" y="139.3" width="219.9" height="146.5"/>
			</defs>
			<clipPath id="SVGID_00000168077011094983554790000014027832721190356394_">
				<use xlink:href="#SVGID_00000183223301275768223450000003693162849091783311_"  style="overflow:visible;"/>
			</clipPath>
			<g style="clip-path:url(#SVGID_00000168077011094983554790000014027832721190356394_);">
				<path class="st3" d="M102.9,159.5c0,0,0.2-1.1,0.2-1.3c0-0.6,0.4-5.8,0.5-6.5c0.1-0.6,0.3-1.2,0.4-1.6c0.1-0.6,0.2-0.5,0.8-1.6
					c0.6-1,1.5-2,4-2.1c2.2-0.2,9.2-0.6,11.8-0.6c4-0.1,12.3,0.4,13.6,1.1c0.6,0.3,2.3,3.9,2.7,5.1s1.5,5.6,0.9,5.5
					c-7.5-0.8-12-0.2-12.9-0.2c-0.3,0-0.3,0.3-0.3,0.3s0.1,6-0.3,7.1c-0.4,1.1,0.1,6.5,0.1,7.7s1,4.6-1.6,4.8c-2.6,0.1-4,0-4.2-0.1
					c-0.2-0.1-1.3-0.1-1.2-2.5s-0.4-12.8-0.4-12.8s-0.4-4-0.8-4.2s-5.3,0.4-7.4,1.5c-2,1-3.9,2.7-3.8,3.7c0.1,0.8,3,3.3,5.8,2.9
					c2.8-0.4,3.2-1.1,4.2-0.8c0.6,0.2,0.6,0.3,0.7,1.3c0.2,1.6-0.2,6.3-0.1,7.6c0.2,1.5,1.2,4.5,0.6,5.1c-0.6,0.6-2.5,0.6-4.9,1.4
					c-2.5,0.8-4.9,1.8-5.5,1.3c-0.8-0.7-0.6-1.6-1.6-5.1c-1-3.5-2.3-8-1.8-13.9C102.7,160.5,102.9,159.5,102.9,159.5"/>
				<path class="st3" d="M107.5,161c0,0,0-0.9,3.5-1.4c2-0.3,4.6-0.9,4.9-0.4c0.3,0.5,0,3.2-1,3.7c-1,0.5-3.3,0.9-4.9,0.9
					S107.2,163,107.5,161"/>
				<path class="st3" d="M127.1,158.3c1.2-0.4,4.2-0.1,4.9,0c3.6,0.2,3.5,0.6,3.5,0.6s0.9,0.3-3.1,2.4c-1,0.5-2.8,1-4.1,0.4
					C126.9,161,126.1,158.6,127.1,158.3"/>
				<path class="st3" d="M136.7,159.8c-0.8,0.9-1.8,2.2-3,2.6c-1.3,0.5-2.3,0.7-4.2,0.7c-1.8,0-2-0.5-2.7-0.5s0,3.4,0,9
					s1.7,8.2,2.1,8.6c0.4,0.5,0.2,0.9,0,0.7c-0.7-0.5-4.1-1.7-7.5-1.6c-4.8,0.1-13.9,3.6-13.9,3.6s-0.6,0.4,1.2,2.5
					c1.9,2.1,9.3,3.9,12.1,3.9s5.7-0.6,10.1-3.6c4.3-3,5.9-9.3,6.1-10.7c0.2-1.4,0.9-14.1,0.9-15S137.4,158.9,136.7,159.8
					 M126.6,182.6c0,0.1-1.5,0.4-4.7,0.5c-3.1,0.1-4.2-0.5-4.2-0.5s-0.3,0-0.2-0.2c0.1-0.2,2-0.8,3-0.9c2-0.2,3.2-0.1,4.8,0.4
					C126.1,182.1,126.6,182.4,126.6,182.6"/>
				<path class="st3" d="M127.5,191.5c0,0-0.7-1.2,1-2.2c0.8-0.5,2.8-1.6,4.3-1.8c1.5-0.2,4.9-0.3,6.5,0.5l1.6,0.8
					c0,0,5.2,2.6,6.2,6.3c1,3.6,0.9,8,0.5,9.4c-0.4,1.7-1.3,4-2.8,4.9c-1.5,0.9-1,2.5-1,2.7s0.1,3.4,1.2,6.1
					c1.1,2.7,4.1,9.2,4.6,10.2c1.5,3,2,5.5,2.2,6.3s0.9,2.4,0.7,3.3s-3.1,9.3-3.2,10.6c-0.2,1.2-0.7,3.6-0.7,3.8s-0.2,0.7-0.7,0.4
					c-0.8-0.5-11.5-11.9-14-20.3c-2.5-8.4-6.3-20.7-6.4-26.6c0-5.9-0.4-7.8,1.1-8.2c1.6-0.4,3.3,0,4.3,0.5c1,0.5,3.2,2.5,3.4,1.7
					c0.2-0.7,0-2.7-0.6-4.2C135.6,194.8,132.9,191.6,127.5,191.5"/>
				<path class="st3" d="M164,220.9c0,0-0.5,9.8-0.3,11.4s0.1,4,0.1,4.5c-0.1,0.7-0.7,1.7-1.9,1.2c-1-0.4-5.6-7.6-7.7-12.5
					s-2.6-5.9-3.1-6.7c-0.5-0.8-0.5-3.7-0.5-4.5c0-0.9,0.4-12,0.3-13.7c0-1.7-0.7-7.2-1.7-8.8c-1-1.7-3-3.8-5.4-6.2
					c-2.3-2.3-5.9-3.4-6.5-3.6c-0.4-0.1-0.5-0.5,0.3-1.6c0.7-1,1.3-2.1,1.5-6c0.2-3.6,0.9-12.6,0.9-12.6s0.3-4.7-0.1-6.5
					c-0.3-1.4-1.3-2.9-1.4-3.4c-0.1-0.6,0-1.4,0.7-1.5c1.5-0.3,5.7-1.4,15-1c9.6,0.5,14.3,2.5,17.6,3.4c3.2,0.9,7.8,3.1,9,3.7
					c0.8,0.4,2.7,1.3,3.1,1.6c0.4,0.2,7.2,4,12.5,11c3.2,4.2,3.2,6.5,4.6,8.4c1.5,1.9,9.1,11,9.6,11.5c0.4,0.6,3.3,4.5,8.2,5.9
					c4.9,1.3,7.1,1.5,9.9,1.3c2.7-0.2,3.9-0.1,4,0.1c0.2,0.4,1.5,8.2,1.9,10s4.6,13.4,5.5,15.1c0.9,1.7,4.8,10.4,9.4,14.5
					c4.6,4.2,8.5,6.9,11.2,8.3c2.6,1.3,2.9,1.9,6.8,3c2.1,0.6,7.7,1.5,8.7,1.4c1,0,1.4,0.1,1.2,0.8c-0.3,0.8,0.1,1.6-2.7,3.4
					s-12,7.1-13.9,8.4c-2.5,1.7-6.4,5.4-8,6.8c-1.4,1.2-2,2-2.7,2.2c-0.8,0.2-2.1-0.2-4.2-1.5c-2.2-1.2-3-2-3.2-2.2
					c-0.3-0.4,0-1.3,1-2.1c1-0.8,6.7-6.3,10.6-9c4-2.8,8.7-4.2,9.3-4.4c0.7-0.2,1.6-0.4,1.2-0.5c-0.4-0.2-6.4-2.9-8.1-4
					c-1.7-1.2-5.3-4.3-7.8-5.7s-4.4-3.7-7.6-3.6c-5.4,0.2-19.9,4.1-20.8,4.3c-2.1,0.5-11.1,2.5-18.3,4.7c-6.2,1.9-16.1,2.7-16.6,2
					c-0.6-0.9-0.2-1.9,0.4-2.4s2.8-2,5.8-5.4c3-3.4,7-10.1,8.5-14.4s1.9-8.8,0.5-13.4c-1.6-5.2-8.8-10.1-15.6-10
					c-7.2,0-12.5,0.9-15.3,4.1C167.7,208.8,166.1,209.9,164,220.9"/>
				<path class="st3" d="M165.7,221.5c0,0,1-5.1,1.4-6.2c0.5-1.6,2.7-6.3,4.9-7.6c2.2-1.3,5.9-4.4,13.6-3.7c7.6,0.7,10.8,5,11.7,6.5
					s4,6,1.3,12.9c-2.7,6.9-4.5,9.8-6.1,11.5c-1.5,1.7-2.5,3.8-5.4,6.4c-2.9,2.6-2.1,2.1-2.5,2.4c-0.4,0.3-5.2,3.1-8.8,7
					c-3.6,3.9-12.6,14.1-13.9,15.6c-1.3,1.5-1.6,2.9-3.1,3.1s-2.8-0.1-2.6,0.2c0.1,0.3,0.5,0.9,2.4,2.1c1.9,1.2,1.8,1.7,2,2.6
					c0.3,1,0.2,2-0.8,2.3c-1,0.3-6.4,1.7-10.3,1.7c-3.9,0-5.8-0.4-5.7-2.4c0-2,0.3-7.9-0.2-7.8c-0.7,0.1-2.5,3.2-3.3,4.8
					c-0.6,1.1-1,3.4-0.6,4.2c0.5,0.8,0.5,1.2,0.3,1.5c-0.6,0.6-2.1,2.2-3.2,1.4s-3.8-3-3-7.5c0.1-0.5,0.7-2.4,1.3-2.9
					c0.6-0.4,1.9-1.7,1.3-1.8c-1.5-0.1-3.1,1.4-3.6,2.8c-0.8,2.2-0.2,8.3,0.1,8.9c0.3,0.6,0,1.4-0.7,2.1c-0.5,0.5-1.5,0.9-2.9,0.4
					c-1.4-0.4-3.8-2.7-3.5-6.8c0.4-4.1,2.5-8.6,4.9-10s4.8-2.3,10-2.3s7.4,0.3,8.2-0.3c0.8-0.6,4.5-5.5,7.4-8.5
					c2.9-3,6.3-6.5,7.1-7.3c0.9-0.8,2.6-3.2,2.6-5.8c0-2.6-0.5-3.1-0.6-11C165,222.1,165.5,222.2,165.7,221.5"/>
				<path class="st3" d="M234.9,200.3c0,0-1-4.2,1.1-4.9c2.1-0.6,3.2-0.1,3.7,0.5c0.4,0.7,2.2,8.3,2.6,10.1s5,14,8.2,18.4
					c3.3,4.5,7.4,9.7,13.7,13.4c5.1,3,8.2,4.7,10.4,4.9s3.4,0.6,3.5,1.5c0.1,0.9-0.3,2.5-1.5,2.7c-1.2,0.2-2.3-0.3-3.6-0.4
					c-0.8-0.1-13.4-2.4-22.3-12.4c-9.2-10.2-10.1-16-11.3-20.6c-0.5-1.8-0.8-2.5-1.3-3.9C237.7,209.4,235,200.6,234.9,200.3"/>
				<path class="st3" d="M241.3,196.5c-0.2-1,0-2.1,1-2.5c1.8-0.8,3.5-1.8,4.5-2.2c1.1-0.5,13.9-6.7,16.1-7.3
					c2.2-0.6,13.3-1.8,21.6,1c9.1,3,10.2,4.5,13.6,7.1c4.3,3.3,9.3,7.8,11.5,11.5c1.8,3.2,3.6,7.3,4.8,11.7
					c0.8,2.9,1.4,8.2,1.5,10.7c0.1,2.3,0.2,7.1-0.6,7.8c-0.8,0.7-1.4,1-2.2,1s-0.9-0.4-1-3c0-2.2-0.9-9.2-4.8-17.1
					c-4-7.9-5.9-11.5-9.8-15.6c-3.1-3.2-7.1-6.7-8.9-6.5c-1,0.1-0.4,0.2-0.4,0.2s5.1,3.8,8.4,7.7c2.5,2.9,6.5,9.6,6.5,9.6l1.3,2.7
					c0.6,1.5,2.9,6.3,4,9.4c2.3,6.4,2.4,11.5,2.1,13.9c0,0.4,3.9,0.3,4.9,0.4c1,0,1.8,0.8,2.1,1.3s1.8,4.8,2.5,8.9
					c1.7,10.6,0.5,21.1-0.3,25.5c-0.8,4.4-1.9,5.7-2.5,6.8c-0.6,1.1-0.6,2-3.2,3.5c-5.9,3.3-8.7,3.7-8.7,3.7s-3.9,0.9-3.9-0.9
					c0-0.7,0.5-2.4,2.6-4.8s1.7-2,2.5-4.5c0.7-2,1.6-4.5,1.1-12.2s-2.6-15.6-2.8-16.2c-0.2-0.6-1.8-0.7-3.2-0.4
					c-1.5,0.3-16.2,2.8-17.5,2.8s-4.8-1-4.8-3.9s0.1-4.3-0.4-4.3c-1.8-0.1-10.8-4.1-16.9-8.4c-7.2-5-13.2-14-16.1-21.4
					C243.4,206,243.9,207.4,241.3,196.5"/>
				<path class="st3" d="M166.1,143.9c0,0,0.3-4.6,5.6-4.6s7.2,1.9,8.2,2.3s2.8,2.5,10.6,5.1c8.3,2.8,9.5,2,11.4,1.9s3.4,0,5.3,0.2
					c1.8,0.1,5.1,0.5,9.7,3.9c4.5,3.4,6.5,5.6,7.2,7.5c0.7,1.9,1.3,4.6,1.3,5c0,0.3,0.1,1.3-1.2,1.4c-1.3,0.1-3.9-1.8-6.3-1.4
					s-4.9,1.2-6.6,2.8c-1.7,1.5-5,4.8-5.5,5.1c-0.5,0.3-2.5,0.3-3.4-1c-0.9-1.2-2.1-3.3-2.6-3.6c-0.5-0.3-1.5-1.9,0.7-3.4
					c2.1-1.5,6.2-4.8,9-5.3c2.8-0.5,4.7-0.9,5.8-0.6c1.1,0.3,2.7,0.4,2.5-0.1c-0.1-0.3-2.5-0.7-3.5-0.9c-2.6-0.4-4.2-0.7-6.7,0
					c-2.2,0.7-6.7,2.3-7.7,3.7c-1,1.5-1.3,1.8-3.1,2.1c-3.3,0.5-5.7-3.2-5.8-4.6c-0.2-1.5,0-3.5,2.2-4.6c1.5-0.8,3.2,0,3.9,0.5
					c0.7,0.5,0.1,1.7,0.6,1.9c0.3,0.1,0.4,0,1.8-1.1c1.1-0.9,0.7-1.4,3.8-2c5.8-1.1,6.2-0.1,6.2-0.4s-1-1.8-6.7-2
					c-2.8-0.1-9.6,1.2-13.2,3.1c-3.1,1.6-3.6,0.8-4.1,0.5c-0.7-0.5-4.5-2.9-6.2-3.7c-2-1-4.7-4.6-5.1-4.4s-0.3,2.1-3.4,1.6
					C167.3,148.4,165.8,146.8,166.1,143.9"/>
				<path class="st3" d="M220.9,148.2c0,0,1.4-3.4,4.5-3.3c0.7,0,3.1,1.4,2.4,3.5c-0.7,2.2-2,3.6-2.3,5c-0.3,1.4-0.3,1.8-1,2.5
					c-0.7,0.6-0.9,1-1.9,0.1c-1-0.9-2.3-2.8-2.3-5.2C220.4,149.3,220.9,148.2,220.9,148.2"/>
				<path class="st3" d="M225.4,160c0,0,0.2-6.4,4.8-10.3c3.9-3.3,6.3-3.2,8.6-1.5c1.9,1.4,1.7,3.4,1.2,4.6
					c-0.6,1.5-1.6,2.3-3.2,3.3c-1.3,0.8-2.7,1.3-4.3,1.9c-1.3,0.5-2.3,0-3.7,3.1c-1.3,3.1-1.5,3.3-1.9,3.5c-0.3,0.2-1-0.1-1.2-1.5
					C225.5,161.6,225.4,160,225.4,160"/>
				<path class="st3" d="M229.4,189.9c0,0,2.8,0,5.7-1c2.8-1,4.7-2,5.7-2.1s3,0.9,2.8,3.6c-0.3,2.7-1.8,2.6-4.4,3.4
					c-2.6,0.8-6.4,1.1-7.8,1c-1.9-0.1-3.3-1.9-3.4-3.4c-0.2-1.5,1-1.4,1.3-1.4S229.4,189.9,229.4,189.9"/>
				<path class="st3" d="M219.8,189.1c-1.2,0.1-1.5,1-1.3,2c0.3,1,1.7,2,3.8,1.6c2.1-0.4,3.9-0.8,4.7-2.9c0.9-2.4,0-4.1-0.5-4.9
					c-0.5-0.7-0.7-0.7-1.2-0.1c-0.6,0.6-1.5,2.6-3,3.6C221,189.4,220,189,219.8,189.1"/>
				<path class="st3" d="M209.4,173.5c0,0,1.4-3.5,5.4-4.8s5.7-0.7,7.7-0.5c2.9,0.4,7.4,3.6,7.9,5c0.3,0.8,0.1,1.9-0.6,2.7
					c-0.7,0.8-1.8,1.6-3.7,1.2c-1-0.2-1-0.7-1.9-1.9c-0.9-1.2-2.7-2.5-4.1-2s-4,2.5-4,4.5c0,1.8,0.5,4,1.1,4.6
					c0.6,0.6,0.9,0.1,0.7-0.3c-0.2-0.4-1.2-2.5,0.2-3.7c1.4-1.2,2.6-1.6,4.4-1.1c2.7,0.9,3.3,2.7,2.6,5.4s-4.2,5.3-6,5.5
					c-1.9,0.2-8.6-0.2-10.1-6.7C207.5,174.9,209.5,173.5,209.4,173.5"/>
				<path class="st3" d="M228.9,163.9c0,0,0.6-1.8,3.9-3.9s6.6-4.2,7.6-5.4c1-1.2,2.6-4.1,1.4-4.6c-1.4-0.6-2.5-3.6-1.8-5.4
					s2.2-3.3,4.1-3.2s4.2,0.5,4.8,1.4c0.6,0.8,0.7,1.9,1.2,1.5s2.1-2,3.9-1.6c2.7,0.6,3.9,2.6,4.4,5.9c0.5,3.3-0.9,4.6-1.9,5
					c-2.4,1.1-5.5,1.8-10,3.3c-4.7,1.6-9.2,3.7-11.8,5.9s-4.8,5.4-5.1,5.8c-0.3,0.4-2,1.1-2.2,0.4
					C227.2,168,226.3,167.4,228.9,163.9"/>
				<path class="st3" d="M238.3,174.1c0,0,2.8-4.4,6.7-4.8c3.9-0.4,7.2,1.1,8.5,2.1c1.3,1,2.4,3.4,4.5,5.1c1.5,1.2,6.4,0.5,7.6,0.4
					c1.3-0.1,2.7,0.4,2.2,1.3c-0.2,0.4-5.2,4.6-11.6,6.2c-6.4,1.6-12.4,1.5-14.4-0.5s-2.2-3.6-1.9-4.5c0.6-1.7,3.5-4.1,4.5-4.1
					c2.3,0,2.5,1.8,3.5,1.1c1-0.7,1-1.8-0.2-2.7s-1.7-1.7-3.7-0.8s-2.5,2-3.3,2.7c-0.8,0.7-1.4,0.5-2,0.1
					C237.6,175,238.3,174.1,238.3,174.1"/>
				<path class="st3" d="M232,169.4c0,0,5.3-5.8,8.1-7.5c2.8-1.6,8-5.4,13-6.1c5-0.6,9.7,0.3,13.4,1.6s7.9,2.4,12.7,7.2
					c4.8,4.8,8.1,11.5,8.6,13.4c0.5,1.9-0.2,3.8-1.3,4c-1.1,0.2-5.3-2.1-6.1-2.5s-0.7-0.2-0.9-3.2s-2.6-9.1-5-10.9
					c-2.2-1.6-1.6-0.1-1.1,0.3s3.3,4,3.1,6.7c-0.2,2.7,0.3,4.8-0.9,5.6c-1.2,0.9-2.2,1.4-2.5,0.7c-0.3-0.7-1.2-7-1.6-8.4
					c-1.2-3.9-5.6-7.6-6.6-8.1c-1.8-1-1.7-0.4-1.3,0.1c0.4,0.5,3.5,2.7,4.4,5.8c0.8,3,1.7,5.4,1.5,6.2c-0.2,0.9-0.9,1.1-2,1.3
					c-1,0.2-1.9,0.1-2.2-1.6s-0.7-7.7-4.8-10.5c-4.1-2.8-5.8-3.6-7-3c-0.6,0.4,3.4,1.3,5,3.2s3.8,2.9,3.5,7.5c-0.2,4.5-1.4,4-2,4
					c-0.6,0-2,0.5-2.1-2.4c-0.1-2.9-0.1-3.7-2.2-5c-2.1-1.4-6.4-3.4-9.7-2.2c-3.2,1.1-6.3,2.4-9.4,8.8c-3,6.1-1.5,7.5-1.3,9
					c0.2,1.6,1.3,3.7-0.9,4.5s-4.5,0.8-5-0.8c-0.4-1.2-0.9-6.3-1.5-7.2s-0.6-1.3,0-1.5c0.6-0.2,3.1-1.9,3.2-3.4
					C231.5,170.3,232,169.4,232,169.4"/>
			</g>
		</g>
		<text transform="matrix(0.5427 0.8399 -0.8399 0.5427 50.6317 297.2719)" class="st3 st4 st5">E</text>
		<text transform="matrix(0.6633 0.7484 -0.7484 0.6633 70.8815 326.8819)" class="st3 st4 st5">l</text>
		<text transform="matrix(0.7695 0.6386 -0.6386 0.7695 83.5324 341.6519)" class="st3 st4 st5">s</text>
		<text transform="matrix(0.87 0.493 -0.493 0.87 112.662 364.7019)" class="st3 st4 st5">t</text>
		<text transform="matrix(0.9502 0.3117 -0.3117 0.9502 136.9523 378.7419)" class="st3 st4 st5">e</text>
		<text transform="matrix(0.9984 5.634428e-02 -5.634428e-02 0.9984 180.5321 392.2618)" class="st3 st4 st5">d</text>
		<text transform="matrix(0.9588 -0.284 0.284 0.9588 248.1621 390.8121)" class="st3 st4 st5">k</text>
		<text transform="matrix(0.904 -0.4275 0.4275 0.904 282.4322 379.6519)" class="st3 st4 st5">i</text>
		<text transform="matrix(0.844 -0.5364 0.5364 0.844 299.2921 371.7215)" class="st3 st4 st5">r</text>
		<text transform="matrix(0.7361 -0.6769 0.6769 0.7361 322.8921 356.6616)" class="st3 st4 st5">k</text>
		<text transform="matrix(0.5657 -0.8246 0.8246 0.5657 350.722 330.6029)" class="st3 st4 st5">e</text>
	</g>
</g>
</svg>
